<svg width="24" height="24" viewBox="0 0 24 24" fill="none" xmlns="http://www.w3.org/2000/svg">
<path d="M20.6476 10.0611H19.9234V10.0242H11.8234V13.6242H16.9105C16.167 15.7195 14.1736 17.2241 11.8234 17.2241C8.84045 17.2241 6.42347 14.8072 6.42347 11.8242C6.42347 8.84118 8.84045 6.4242 11.8234 6.4242C13.1998 6.4242 14.4531 6.94275 15.4058 7.79177L17.9511 5.24647C16.3445 3.74882 14.1947 2.82422 11.8234 2.82422C6.85237 2.82422 2.82349 6.8531 2.82349 11.8242C2.82349 16.7952 6.85237 20.8241 11.8234 20.8241C16.7945 20.8241 20.8234 16.7952 20.8234 11.8242C20.8234 11.2212 20.7619 10.6324 20.6476 10.0611Z" fill="#FFC107"/>
<path d="M3.86075 7.63533L6.81913 9.80445C7.61893 7.82341 9.55603 6.4242 11.8236 6.4242C13.2 6.4242 14.4533 6.94275 15.406 7.79177L17.9513 5.24647C16.3447 3.74882 14.1949 2.82422 11.8236 2.82422C8.366 2.82422 5.36894 4.77538 3.86075 7.63533Z" fill="#FF3D00"/>
<path d="M11.8236 20.8238C14.1474 20.8238 16.2603 19.9343 17.8581 18.4877L15.072 16.1305C14.1685 16.8142 13.0452 17.2238 11.8236 17.2238C9.48217 17.2238 7.49585 15.7314 6.74702 13.6484L3.81149 15.909C5.30035 18.8234 8.32553 20.8238 11.8236 20.8238Z" fill="#4CAF50"/>
<path d="M11.8235 10.0249H19.9235L20.6477 10.0215C20.762 10.5928 20.8235 11.222 20.8235 11.8249C20.8235 16.3249 17.6612 18.6663 17.8581 18.4887L15.072 16.1315H15.0702C15.9052 15.4987 16.5538 14.6321 16.9106 13.6249H11.8235V10.0249Z" fill="#1976D2"/>
</svg>
