<svg width="228" height="24" fill="none" xmlns="http://www.w3.org/2000/svg"><path d="M0 .667C0 .298.298 0 .667 0h36.666c.369 0 .667.298.667.667v22.666a.667.667 0 0 1-.667.667H.667A.667.667 0 0 1 0 23.333V.667z" fill="#1434CB"/><g clip-path="url(#a)"><path d="m15.736 8.154-3.638 8.404H9.725l-1.79-6.707c-.109-.413-.203-.565-.534-.739-.54-.283-1.43-.55-2.214-.714l.053-.244h3.82c.487 0 .925.313 1.035.857l.945 4.863 2.337-5.72h2.359zm9.298 5.66c.01-2.218-3.167-2.34-3.145-3.331.006-.302.303-.622.952-.704.322-.041 1.208-.072 2.213.376l.394-1.782a6.206 6.206 0 0 0-2.1-.373c-2.219 0-3.78 1.142-3.793 2.778-.015 1.21 1.114 1.885 1.965 2.287.875.412 1.168.677 1.165 1.045-.006.564-.698.813-1.344.822-1.129.017-1.783-.295-2.305-.53l-.407 1.841c.524.233 1.492.436 2.496.447 2.359 0 3.902-1.129 3.909-2.876zm5.86 2.744h2.076l-1.813-8.404h-1.916c-.43 0-.794.243-.955.616l-3.37 7.788h2.358l.468-1.255h2.88l.271 1.255zm-2.505-2.978 1.181-3.155.68 3.155H28.39zm-9.446-5.426-1.856 8.404h-2.245l1.857-8.404h2.244z" fill="#fff"/></g><path d="M42 .667c0-.369.298-.667.667-.667h36.666c.368 0 .667.298.667.667v22.666a.667.667 0 0 1-.667.667H42.667a.667.667 0 0 1-.667-.667V.667z" fill="#1D1F21"/><g clip-path="url(#b)"><path d="M64.303 5.71h-6.958v12.58h6.958V5.71z" fill="#FF5F00"/><path d="M57.787 12a8.026 8.026 0 0 1 .798-3.497 7.977 7.977 0 0 1 2.24-2.793 7.91 7.91 0 0 0-8.39-.906 7.969 7.969 0 0 0-3.266 2.952 8.036 8.036 0 0 0 0 8.488 7.97 7.97 0 0 0 3.265 2.951 7.911 7.911 0 0 0 8.39-.905 7.979 7.979 0 0 1-2.24-2.793A8.026 8.026 0 0 1 57.788 12z" fill="#EB001B"/><path d="M73.69 12c0 1.501-.42 2.972-1.21 4.244a7.968 7.968 0 0 1-3.266 2.951 7.91 7.91 0 0 1-8.39-.905 7.992 7.992 0 0 0 2.238-2.794 8.04 8.04 0 0 0 0-6.992 7.992 7.992 0 0 0-2.238-2.794 7.91 7.91 0 0 1 8.39-.906 7.968 7.968 0 0 1 3.265 2.952A8.035 8.035 0 0 1 73.69 12zM72.932 16.957v-.258h.103v-.052h-.263v.053h.103v.257h.057zm.51 0v-.31h-.08l-.093.213-.093-.213h-.08v.31h.056v-.234l.087.202h.06l.086-.203v.235h.057z" fill="#F79E1B"/></g><path d="M84 .667c0-.369.299-.667.667-.667h36.666c.369 0 .667.298.667.667v22.666a.666.666 0 0 1-.667.667H84.667a.667.667 0 0 1-.667-.667V.667z" fill="#F5F5F5"/><path d="M122 13s-10.485 7.598-29.688 11h29.021a.666.666 0 0 0 .667-.667V13z" fill="#F58025"/><path d="M88.152 9.66h-1.485v5.188h1.477c.786 0 1.353-.184 1.852-.6.592-.488.943-1.228.943-1.992 0-1.53-1.145-2.596-2.787-2.596zm1.183 3.897c-.319.287-.732.413-1.385.413h-.273v-3.432h.273c.653 0 1.05.116 1.385.42.35.31.561.793.561 1.29 0 .501-.21.998-.561 1.31zM92.416 9.66h-1.013v5.188h1.013V9.66zM94.89 11.651c-.608-.224-.786-.373-.786-.653 0-.327.317-.576.754-.576.302 0 .553.124.815.421l.53-.694a2.27 2.27 0 0 0-1.526-.575c-.918 0-1.618.638-1.618 1.488 0 .715.327 1.08 1.277 1.423.397.14.598.232.7.295a.62.62 0 0 1 .303.537c0 .42-.335.732-.786.732-.483 0-.872-.241-1.105-.692l-.653.63c.467.683 1.026.988 1.796.988 1.052 0 1.79-.7 1.79-1.704.002-.826-.339-1.199-1.492-1.62zM96.702 12.258c0 1.526 1.196 2.708 2.738 2.708.435 0 .808-.086 1.269-.302v-1.191c-.405.405-.764.567-1.223.567-1.018 0-1.742-.74-1.742-1.79 0-.996.746-1.782 1.696-1.782.483 0 .848.172 1.269.584V9.86c-.445-.225-.81-.319-1.245-.319-1.534 0-2.762 1.207-2.762 2.716zM108.733 13.146 107.35 9.66h-1.104l2.201 5.322h.545l2.241-5.322h-1.096l-1.404 3.486zM111.69 14.848h2.871v-.878h-1.859V12.57h1.791v-.878h-1.791v-1.153h1.859V9.66h-2.871v5.188zM118.568 11.192c0-.973-.67-1.532-1.836-1.532h-1.502v5.188h1.011v-2.085h.132l1.401 2.085h1.245l-1.634-2.185c.764-.156 1.183-.678 1.183-1.471zm-2.031.858h-.294v-1.572h.31c.63 0 .972.265.972.77.002.519-.34.802-.988.802z" fill="#000"/><path d="M106.548 12.258a2.758 2.758 0 1 1-5.517 0 2.758 2.758 0 0 1 5.517 0z" fill="#F58025"/><path d="M126 .667c0-.369.298-.667.667-.667h36.666c.369 0 .667.298.667.667v22.666a.666.666 0 0 1-.667.667h-36.666a.666.666 0 0 1-.667-.667V.667z" fill="#1B76D1"/><path d="m134.966 13.337-.874-2.262a3.35 3.35 0 0 1-.096-.344c-.039-.163-.08-.362-.122-.598-.047.227-.091.43-.134.612a3.868 3.868 0 0 1-.096.359l-.841 2.233h2.163zM130 16l2.968-7h1.907l3.011 7h-1.897l-.634-1.487h-3.021L131.79 16H130zM138.03 16l1.188-7h1.747l1.503 4.122c.032.086.066.212.101.377.039.166.075.356.107.57.028-.218.06-.41.096-.58a2.36 2.36 0 0 1 .101-.377L144.402 9h1.721l1.194 7h-1.583l-.57-4.222a15.645 15.645 0 0 1-.085-.708 5.125 5.125 0 0 1-.022-.444v-.163l.011-.1c-.053.274-.105.511-.154.712a3.846 3.846 0 0 1-.128.45L143.134 16h-.938l-1.625-4.475a8.112 8.112 0 0 1-.096-.345 106.31 106.31 0 0 1-.197-.822v.205c0 .326-.032.724-.096 1.196l-.005.019-.565 4.222h-1.582zM149.07 16V9h4.593v1.262h-2.925v1.44h2.925v1.271h-2.925v1.755h2.925V16h-4.593zM156.689 10.831a3.213 3.213 0 0 1 .336.665 3.723 3.723 0 0 1 .362-.693L158.49 9h1.769l-2.329 3.337L160.333 16h-1.801l-1.156-1.941a3.412 3.412 0 0 1-.192-.368 5.556 5.556 0 0 1-.149-.402c-.06.166-.121.314-.181.445-.06.13-.119.243-.176.34L155.522 16h-1.79l2.408-3.663L153.796 9h1.779l1.114 1.831z" fill="#fff"/><path d="M168 .667c0-.369.298-.667.667-.667h58.666c.369 0 .667.298.667.667v22.666a.666.666 0 0 1-.667.667h-58.666a.666.666 0 0 1-.667-.667V.667z" fill="#00A0E9"/><path d="M202.035 8.659c.51 0 .931-.375.931-.856 0-.463-.421-.855-.931-.855-.509 0-.931.374-.931.855s.404.856.931.856z" fill="#fff"/><path fill-rule="evenodd" clip-rule="evenodd" d="M196.959 15.52h-1.985l-.632-1.337h-3.829l-.667 1.337h-1.335l3.758-7.913a.64.64 0 0 1 .176-.196.398.398 0 0 1 .246-.071h.545l3.723 8.18zm-2.81-1.907-1.651-3.618-1.722 3.618h3.373z" fill="#fff"/><path d="M197.697 15.52h1.897V7.34h-1.528c-.088 0-.193.018-.264.089a.355.355 0 0 0-.105.25v7.84zM201.192 9.728a.355.355 0 0 0-.105.25h.017v5.755h1.88V9.64h-1.528c-.088 0-.193.018-.264.089z" fill="#fff"/><path fill-rule="evenodd" clip-rule="evenodd" d="M204.547 9.657a.388.388 0 0 0-.088.249v8.09h1.809v-2.44c.176.07.334.106.51.124.158.018.369.018.615.018.474 0 .913-.09 1.282-.268.369-.178.685-.427.948-.73.281-.303.457-.66.615-1.087a4.33 4.33 0 0 0 .211-1.372c0-.393-.088-.767-.193-1.105a2.867 2.867 0 0 0-.51-.91 2.763 2.763 0 0 0-.808-.605c-.298-.16-.667-.232-1.036-.232a2.48 2.48 0 0 0-.931.178 3.293 3.293 0 0 0-.72.446V9.55h-1.458a.344.344 0 0 0-.246.107zm1.862 4.829a1.144 1.144 0 0 1-.07-.428v-2.726a2.02 2.02 0 0 1 .246-.303c.087-.09.193-.178.281-.25a.738.738 0 0 1 .298-.178c.106-.036.229-.053.334-.053.158 0 .316.053.439.16.123.107.246.25.334.463.105.214.175.464.228.767.053.303.07.659.07 1.051 0 .303-.035.606-.087.855-.052.244-.153.47-.24.663l-.006.015a1.31 1.31 0 0 1-.352.445.703.703 0 0 1-.439.16c-.158 0-.334-.017-.456-.07a1.217 1.217 0 0 1-.352-.232.892.892 0 0 1-.228-.339zM211.801 9.71c1.511-.392 2.617-.339 3.478-.09.65.18 1.388.696 1.388 1.551v4.402h-1.862v-.232c-2.231 1.016-3.583-.338-3.583-1.782 0-.837.579-2.138 2.213-2.12.297.012.639.043.969.072l.401.035v-.321c0-1.034-.439-1.372-2.828-.945a2.222 2.222 0 0 1-.118-.367c-.02-.074-.039-.145-.058-.203zm2.126 2.584a1.32 1.32 0 0 0-1.212 1.337c0 .73.544 1.318 1.212 1.336.333 0 .614-.125.843-.356v-2.157c-.141-.107-.404-.196-.843-.16z" fill="#fff"/><path d="M219.143 9.425h-1.914l2.968 5.756-.211.499a.94.94 0 0 0-.115.21l-.043.093c-.035.107-.14.285-.211.374-.338.395-1.1.393-1.375.392h-.03v1.034l.111.004c.495.026 2.007.105 2.682-1.59l3.004-6.772h-1.037a.533.533 0 0 0-.228.053.375.375 0 0 0-.158.179l-1.546 3.51-1.897-3.742z" fill="#fff"/><path fill-rule="evenodd" clip-rule="evenodd" d="M183.908 13.844h-.001l-.225-.083.226.083z" fill="#fff"/><path d="M184.137 4.667h-9.836C173.036 4.667 172 5.716 172 7v9.962c0 1.319 1.036 2.352 2.301 2.352h9.819a2.318 2.318 0 0 0 2.318-2.334v-.16s-3.741-1.587-5.638-2.513c-1.265 1.568-2.881 2.548-4.585 2.548-2.863 0-3.846-2.548-2.494-4.224.299-.356.808-.73 1.581-.908 1.212-.303 3.179.196 4.988.802.317-.606.598-1.301.808-2.014h-5.62v-.57h2.915V8.89h-3.495v-.57h3.513V6.84s0-.249.246-.249h1.423V8.32h3.477v.57h-3.495v1.052h2.828c-.263 1.122-.667 2.174-1.194 3.082.752.281 1.438.534 1.986.737l.225.083h.002c2.072.713 2.529.749 2.529.749V7a2.303 2.303 0 0 0-2.301-2.335z" fill="#fff"/><path d="M174.213 13.007c-1.124.944-.457 2.709 1.827 2.709 1.317 0 2.635-.82 3.653-2.139-1.458-.713-2.722-1.194-4.057-1.07-.369.019-1.054.179-1.423.5z" fill="#fff"/><defs><clipPath id="a"><path fill="#fff" transform="translate(5.187 8)" d="M0 0h27.783v8.69H0z"/></clipPath><clipPath id="b"><path fill="#fff" transform="translate(44)" d="M0 0h33.667v24H0z"/></clipPath></defs></svg>