<svg width="105" height="25" viewBox="0 0 105 25" fill="none" xmlns="http://www.w3.org/2000/svg"><path d="M44.61 1.577a.705.705 0 00-.605.594l-2.044 15.476a.308.308 0 00.305.35h3.863c.144 0 .269-.1.3-.242l3.5-16.005a.614.614 0 00-.674-.745c-1.27.157-3.6.446-4.646.572zM43.645 19.692c1.736 0 3.09.659 3.09 1.885S45.125 24 42.521 24c-1.416 0-2.247-1.197-2.247-2.423 0-1.471 1.589-1.885 3.37-1.885zM42.013 4.923a.308.308 0 00-.311-.347l-1.794.037a.308.308 0 00-.288.215l-2.107 6.717-.557-4.973a.308.308 0 00-.313-.273l-3.596.08a.308.308 0 00-.276.186l-1.597 3.712.127-6.734a.308.308 0 00-.33-.312l-3.447.26a.308.308 0 00-.284.314l.027 1.127c.002.06.021.12.056.17 1.684 2.455 2.44 6.085 1.562 10.25a11.612 11.612 0 01-1.228 3.364.312.312 0 00-.04.16l.016.647a.308.308 0 00.358.296l3.6-.593a.308.308 0 00.236-.19l2.064-5.136.558 5.88c.016.176.176.302.35.276l3.53-.515a.308.308 0 00.244-.198l2.373-6.385a.309.309 0 00.016-.067l1.051-7.968z" fill="#fff"/><path fill-rule="evenodd" clip-rule="evenodd" d="M16.151 17.784a.3.3 0 00.035.22c.83 1.386 2.089 2.337 3.656 2.474 3.584.314 6.765-1.926 7.616-6.003 1.164-5.42-1.434-9.632-4.973-10.124-1.084-.136-2.335.264-3.504 1.141a.301.301 0 00-.113.175l-2.717 12.117zm7.588-3.891c-.358 1.792-1.523 2.777-2.822 2.688-1.3-.09-2.016-2.106-1.613-3.987.448-2.061 1.747-3.226 2.643-3.092 1.344.18 2.195 2.42 1.792 4.39z" fill="#fff"/><path d="M1.49 2.97a.308.308 0 00-.242.34l2.14 16.462a.308.308 0 00.367.262l3.905-.797a.308.308 0 00.242-.252L9 12.266l1.577 6.876a.308.308 0 00.292.24l3.131.077a.308.308 0 00.308-.24l3.793-16.915a.308.308 0 00-.325-.374l-3.83.31a.308.308 0 00-.279.252l-1.27 7.057-1.416-4.931a.308.308 0 00-.36-.216l-3.563.76a.308.308 0 00-.233.225L5.92 8.915 5.276 2.51a.308.308 0 00-.37-.27l-3.417.73zM81.415 11.606h-1.366l.244-3.049h1.365c.879 0 1.464.64 1.366 1.524-.048.935-.683 1.525-1.61 1.525zM70.097 8.755l-1.414 4.377h2.244l-.78-4.377h-.05z" fill="#fff"/><path fill-rule="evenodd" clip-rule="evenodd" d="M101.004 2.004H55.185c-1.15 0-2.148.797-2.401 1.92l-3 15.077c-.347 1.54.806 3.003 2.383 3.003h45.837c1.15 0 2.148-.798 2.401-1.92l3-15.077a2.461 2.461 0 00-2.401-3.003zM82.146 6h-4.975l-.887 12h3.318l.3-4.083h1.074L82.5 18h3.707l-1.817-4.575c1.22-.59 1.951-1.967 2.049-3.393C86.585 7.475 85.171 6 82.146 6zm-22.341 5.116h4.146l-.146 2.655H59.61L59.317 18H56l.879-11.998h7.902l-.196 2.852h-4.634l-.146 2.262zM67.122 18h-3.366l4.53-11.998h4.097L75.22 18h-3.513l-.39-2.36h-3.415l-.78 2.36zM96 6.002l-.195 2.852H91.17l-.147 1.917h4.342l-.195 2.508h-4.342l-.146 1.967h4.634L95.11 18h-7.93l.87-11.998H96z" fill="#fff"/></svg>