<svg width="65" height="28" viewBox="0 0 65 28" fill="none" xmlns="http://www.w3.org/2000/svg">
<g opacity="0.32">
<path d="M15.1152 5.09604C12.8752 5.09604 11.1112 5.88004 9.83722 7.47604C8.56322 9.05804 7.91922 11.256 7.91922 14.042C7.91922 16.968 8.53522 19.166 9.76722 20.692C11.0132 22.19 12.7772 22.932 15.1152 22.932C16.1232 22.932 17.1032 22.834 18.0552 22.624C19.0072 22.428 19.9872 22.162 21.0092 21.854V25.2C19.1472 25.914 17.0052 26.264 14.6532 26.264C11.1672 26.264 8.47922 25.2 6.61722 23.086C4.75522 20.972 3.80322 17.934 3.80322 14.014C3.80322 11.536 4.26522 9.35205 5.17522 7.51805C6.08522 5.65605 7.40122 4.22805 9.12322 3.24805C10.8452 2.26805 12.8612 1.76405 15.1712 1.76405C17.5932 1.76405 19.8612 2.28205 21.9192 3.30405L20.5192 6.55205C19.7212 6.17405 18.8532 5.83805 17.9572 5.54405C17.0612 5.25005 16.1092 5.09604 15.1152 5.09604V5.09604ZM40.2172 19.474C40.2172 21.588 39.4472 23.254 37.9212 24.458C36.3812 25.662 34.2672 26.264 31.5932 26.264C28.8912 26.264 26.6792 25.844 24.9712 25.004V21.322C26.0632 21.84 27.2112 22.232 28.4432 22.526C29.6752 22.82 30.7952 22.96 31.8592 22.96C33.4132 22.96 34.5472 22.666 35.2752 22.078C36.0032 21.49 36.3672 20.706 36.3672 19.698C36.3672 18.802 36.0452 18.06 35.3592 17.43C34.6872 16.814 33.3012 16.086 31.1732 15.218C29.0032 14.336 27.4632 13.342 26.5672 12.208C25.6712 11.074 25.2372 9.73005 25.2372 8.13405C25.2372 6.14605 25.9512 4.57805 27.3512 3.44405C28.7512 2.29605 30.6552 1.72205 33.0492 1.72205C35.3312 1.72205 37.6132 2.21205 39.8532 3.22005L38.6072 6.39805C36.4932 5.50205 34.5892 5.06805 32.9232 5.06805C31.6632 5.06805 30.7112 5.34805 30.0532 5.89405C29.3952 6.44005 29.0732 7.16805 29.0732 8.06405C29.0732 8.68005 29.1992 9.21204 29.4512 9.64604C29.7032 10.08 30.1512 10.5 30.7532 10.892C31.3552 11.27 32.4332 11.802 33.9872 12.446C35.7372 13.174 37.0112 13.846 37.8372 14.49C38.6632 15.134 39.2372 15.834 39.6292 16.632C40.0352 17.444 40.2172 18.396 40.2172 19.474V19.474ZM53.4052 25.928H49.5132V5.43205H42.4992V2.08605H60.4332V5.43205H53.4192V25.928H53.4052V25.928Z" fill="white"/>
</g>
</svg>
