<svg width="109" height="27" viewBox="0 0 109 27" fill="none" xmlns="http://www.w3.org/2000/svg">
<g opacity="0.32">
<path d="M85.5378 9.41379V11.4759H83.4051V9.41379H85.5378Z" fill="white"/>
<path d="M85.5378 22.5931H83.4051V13.0897H85.5378V22.5931Z" fill="white"/>
<path d="M39.3882 11.431V9.45861H28.5882V11.4759H32.8084V22.5483H35.1681V11.431H39.3882Z" fill="white"/>
<path d="M44.3345 14.9276V12.9103L43.9714 12.8655C42.5193 12.8655 41.4303 13.5827 40.7496 14.9724V13.0896H38.753V22.5483H40.8403V18.3793C40.8403 16.0034 41.7479 14.8379 43.6084 14.8827C43.6992 14.8827 43.9714 14.8827 44.3345 14.9276Z" fill="white"/>
<path d="M53.9092 13.0896V22.5931H51.9126V21.1586C51.0958 22.2793 50.0521 22.8172 48.7361 22.8172C47.6924 22.8172 46.8756 22.5034 46.2857 21.9207C45.7412 21.3379 45.4235 20.4862 45.4235 19.3655V13.0896H47.5563V19.3207C47.5563 19.5448 47.6017 19.7689 47.6924 19.9931C47.7832 20.2172 47.8739 20.4414 48.0101 20.5758C48.1462 20.7103 48.3277 20.8448 48.5546 20.9345C48.7815 21.0241 49.0992 21.0689 49.4168 21.0689C50.2336 21.0689 50.7781 20.8 51.1865 20.2172C51.5496 19.6793 51.7311 18.962 51.7311 18.1103V13.0896H53.9092Z" fill="white"/>
<path d="M61.7143 15.8241H63.7563C63.7563 14.7931 63.3933 14.0759 62.6672 13.5379C61.8958 13.0448 60.9429 12.7759 59.763 12.7759C58.5378 12.7759 57.5395 13.0448 56.8588 13.5379C56.1782 14.031 55.8151 14.7483 55.8151 15.6448C55.8151 16.631 56.2689 17.3483 57.1765 17.8414C57.5395 18.0207 58.4017 18.2897 59.763 18.6034C59.814 18.6286 59.865 18.6397 59.924 18.6524C59.97 18.6624 60.021 18.6735 60.0807 18.6931C60.3166 18.7264 60.5275 18.7844 60.6947 18.8304C60.7527 18.8464 60.8054 18.8609 60.8521 18.8724C60.9795 18.9039 61.1068 18.9574 61.2498 19.0175C61.3106 19.043 61.3743 19.0698 61.442 19.0966C61.6689 19.1862 61.805 19.3207 61.8958 19.4552C61.9865 19.5897 62.0319 19.769 62.0319 19.9931C62.0319 20.3966 61.805 20.7103 61.442 20.9793C61.079 21.2034 60.5798 21.3379 59.9445 21.3379C58.5378 21.3379 57.721 20.7552 57.6303 19.5448H55.5882C55.6336 20.6207 56.042 21.4276 56.7681 22.0103C57.4941 22.5931 58.5378 22.8621 59.8992 22.8621C61.2151 22.8621 62.2134 22.5483 62.9395 21.9207C63.7109 21.3379 64.074 20.5759 64.074 19.6345C64.074 19.231 63.9832 18.8724 63.8017 18.5586C63.6202 18.2448 63.4387 18.0207 63.2571 17.8414C63.0756 17.7069 62.758 17.5276 62.3496 17.3483C62.2015 17.2995 62.0654 17.2508 61.9412 17.2063C61.7228 17.1281 61.5413 17.0631 61.3966 17.0345C61.1698 16.9448 60.8521 16.8552 60.3529 16.7655C60.2595 16.7655 60.1661 16.7444 60.0434 16.7167C59.9873 16.704 59.925 16.6899 59.8538 16.6759C59.7671 16.6587 59.6937 16.6482 59.631 16.6391C59.5295 16.6245 59.4561 16.6139 59.4 16.5862C59.3439 16.5862 59.2878 16.5691 59.2103 16.5454C59.1624 16.5308 59.1063 16.5137 59.037 16.4966C58.8555 16.4966 58.7193 16.4517 58.674 16.4069L58.4017 16.2724C58.3109 16.2276 58.2202 16.1828 58.1748 16.1379C58.1294 16.0931 58.084 16.0483 58.0387 15.9586C57.9933 15.9138 57.9479 15.8241 57.9479 15.7345C57.9025 15.6448 57.9025 15.5103 57.9025 15.4207C57.9025 15.0621 58.0387 14.7931 58.3563 14.6138C58.674 14.3897 59.0824 14.3 59.6269 14.3C60.8975 14.3 61.5782 14.8379 61.7143 15.8241Z" fill="white"/>
<path d="M70.5177 13.0897V14.6138H68.5664V20.2621C68.5664 20.3544 68.5878 20.4255 68.6158 20.519C68.6287 20.5618 68.6429 20.6093 68.6572 20.6655C68.7025 20.8 68.8387 20.8897 68.9748 20.9345C69.1109 20.9793 69.3378 21.0242 69.6101 21.0242C69.9731 21.0242 70.2454 21.0242 70.4269 20.9793V22.638C70.0185 22.6828 69.5193 22.7276 68.9748 22.7276C68.6118 22.7276 68.2941 22.6828 67.9765 22.638C67.7982 22.6086 67.6394 22.56 67.5 22.5174C67.4266 22.4949 67.3585 22.4741 67.2958 22.4586C67.1143 22.369 66.9328 22.2793 66.842 22.1C66.7059 21.9207 66.6151 21.7862 66.5698 21.6517C66.479 21.5173 66.4336 21.338 66.4336 21.0242C66.3883 20.7104 66.3883 20.4862 66.3883 20.3517V14.6138H64.8V13.0897H66.3883V10.2207H68.521V13.0897H70.5177Z" fill="white"/>
<path fill-rule="evenodd" clip-rule="evenodd" d="M74.0117 14.3448V13.0896H72.0151V26.0896H74.1025V21.3379C74.8286 22.3241 75.8722 22.8172 77.2336 22.8172C78.5042 22.8172 79.5479 22.369 80.3193 21.4724C81.0907 20.5759 81.4991 19.3655 81.4991 17.8862C81.4991 16.3621 81.1361 15.1517 80.3193 14.2103C79.5479 13.269 78.4588 12.8207 77.1428 12.8207C75.6907 12.8207 74.647 13.3138 74.0117 14.3448ZM74.7832 15.3759C75.237 14.7931 75.9176 14.4793 76.7344 14.4793C77.5512 14.4793 78.1865 14.7931 78.6857 15.4207C79.1849 16.0483 79.4117 16.8552 79.4117 17.8862C79.4117 18.8724 79.1395 19.6793 78.6857 20.2621C78.2319 20.8448 77.5966 21.1586 76.7798 21.1586C75.9176 21.1586 75.2823 20.8448 74.7832 20.2621C74.284 19.6793 74.0571 18.8724 74.0571 17.8414C74.0571 16.7655 74.3294 15.9586 74.7832 15.3759Z" fill="white"/>
<path d="M90.0303 22.5483V9.45861H87.9429V22.5483H90.0303Z" fill="white"/>
<path fill-rule="evenodd" clip-rule="evenodd" d="M96.7916 12.7759C98.2437 12.7759 99.4235 13.2241 100.286 14.1207C101.148 15.0172 101.602 16.2276 101.602 17.7966C101.602 19.3207 101.148 20.5759 100.286 21.4724C99.4235 22.369 98.2437 22.8172 96.7916 22.8172C95.2941 22.8172 94.1143 22.369 93.2067 21.4724C92.3445 20.5759 91.8908 19.3207 91.8908 17.7966C91.8908 16.2724 92.3445 15.0621 93.2067 14.1207C94.1143 13.269 95.2941 12.7759 96.7916 12.7759ZM98.7429 15.331C98.2437 14.7483 97.6084 14.4345 96.7462 14.4345C95.884 14.4345 95.2487 14.7483 94.7496 15.331C94.2504 15.9138 94.0235 16.7655 94.0235 17.7966C94.0235 18.8724 94.2504 19.6793 94.7496 20.3069C95.2487 20.8897 95.884 21.2034 96.7462 21.2034C97.563 21.2034 98.2437 20.8897 98.6975 20.3069C99.1966 19.6793 99.4235 18.8724 99.4235 17.7966C99.4689 16.7655 99.242 15.9586 98.7429 15.331Z" fill="white"/>
<path d="M108.091 14.6138V13.0897H106.094V10.2207H103.961V13.0897H102.373V14.6138H103.961V20.3517C103.961 20.4862 103.961 20.7104 104.007 21.0242C104.007 21.338 104.052 21.5173 104.143 21.6517C104.188 21.7862 104.279 21.9207 104.415 22.1C104.506 22.2793 104.687 22.369 104.869 22.4586C104.932 22.4741 105 22.4949 105.073 22.5174C105.212 22.56 105.371 22.6086 105.55 22.638C105.867 22.6828 106.185 22.7276 106.548 22.7276C107.092 22.7276 107.592 22.6828 108 22.638V20.9793C107.818 21.0242 107.546 21.0242 107.183 21.0242C106.911 21.0242 106.684 20.9793 106.548 20.9345C106.412 20.8897 106.276 20.8 106.23 20.6655C106.216 20.6093 106.202 20.5618 106.189 20.519C106.161 20.4255 106.139 20.3544 106.139 20.2621V14.6138H108.091Z" fill="white"/>
<path d="M12.9472 0L16.0036 9.29253H25.8943L12.9472 18.5851L4.9454 24.3282L8.00178 15.0356L0 9.29253H9.89074L12.9472 0Z" fill="white"/>
<path d="M18.6974 17.4828L20.949 24.3282L12.9472 18.5851L18.6974 17.4828Z" fill="white"/>
</g>
</svg>
