<svg width="66" height="28" viewBox="0 0 66 28" fill="none" xmlns="http://www.w3.org/2000/svg">
<g opacity="0.32" clip-path="url(#clip0)">
<path d="M15.7806 0H20.4732L17.7672 1.95877L15.7806 0Z" fill="white"/>
<path d="M11.18 19.0834C11.8276 18.8382 12.4181 18.467 12.9162 17.9921C13.4158 17.4667 13.8006 16.8464 14.0469 16.1693C14.2932 15.4922 14.3958 14.7727 14.3484 14.0551V1.08964L18.3084 4.98123V14.4962C18.3438 15.6751 18.1272 16.8483 17.6724 17.9398C17.2177 19.0313 16.535 20.0169 15.6684 20.833C13.9071 22.4599 11.564 23.3385 9.14762 23.2782C6.75112 23.3259 4.43119 22.4479 2.68622 20.833C1.79972 20.0298 1.10063 19.0475 0.636946 17.9537C0.173265 16.8598 -0.0440199 15.6803 1.51298e-05 14.4962V1.5242C-0.000861254 1.47426 0.00839292 1.42464 0.0272377 1.37825C0.0460824 1.33186 0.0741403 1.28962 0.109774 1.25399C0.145408 1.21837 0.187904 1.19008 0.234783 1.17077C0.281662 1.15146 0.331985 1.14152 0.382815 1.14153H3.51782C3.62109 1.14153 3.72014 1.18185 3.79316 1.25361C3.86619 1.32538 3.90722 1.42271 3.90722 1.5242V14.0551C3.86625 14.7792 3.98017 15.5036 4.24164 16.1817C4.5031 16.8598 4.90629 17.4766 5.42522 17.9921C5.91309 18.4679 6.49526 18.8401 7.1356 19.0855C7.77594 19.331 8.46078 19.4445 9.14762 19.419C9.84118 19.4427 10.5325 19.3286 11.18 19.0834Z" fill="white"/>
<path d="M58.6146 1.51123V13.186L58.608 15.9425V18.3229C58.608 20.0352 59.092 21.2956 60.06 22.1042C61.0825 22.8806 62.353 23.2738 63.6438 23.2133H65.6238C65.7253 23.2133 65.8226 23.1737 65.8944 23.1032C65.9662 23.0326 66.0066 22.9369 66.0066 22.8371V20.1714C66.0066 20.0716 65.9662 19.976 65.8944 19.9054C65.8226 19.8349 65.7253 19.7952 65.6238 19.7952H63.9012C62.799 19.8277 62.2644 19.3347 62.3172 18.3034V15.0605C62.3172 14.9607 62.3575 14.865 62.4293 14.7944C62.5011 14.7239 62.5984 14.6843 62.7 14.6843H65.6172C65.7187 14.6843 65.816 14.6446 65.8878 14.5741C65.9596 14.5035 66 14.4078 66 14.3081V11.545C66 11.4453 65.9596 11.3496 65.8878 11.279C65.816 11.2085 65.7187 11.1689 65.6172 11.1689H62.6934C62.6425 11.1689 62.5922 11.1589 62.5453 11.1396C62.4984 11.1203 62.4559 11.092 62.4203 11.0564C62.3847 11.0208 62.3566 10.9785 62.3378 10.9321C62.3189 10.8857 62.3097 10.8361 62.3106 10.7862V1.51123C62.3089 1.41026 62.2673 1.31389 62.1946 1.24248C62.122 1.17108 62.0239 1.13022 61.9212 1.12856H59.004C58.9528 1.12856 58.9022 1.13845 58.8549 1.15768C58.8077 1.17692 58.7648 1.2051 58.7286 1.24064C58.6924 1.27617 58.6638 1.31836 58.6442 1.36479C58.6246 1.41121 58.6146 1.46097 58.6146 1.51123Z" fill="white"/>
<path d="M48.9786 6.05789C48.9786 4.34559 49.467 3.08082 50.4306 2.27008C51.4422 1.49509 52.6995 1.09547 53.9814 1.14151H55.9614C56.0635 1.14322 56.1609 1.18428 56.2325 1.25586C56.3041 1.32745 56.3442 1.42381 56.3442 1.52419V4.18344C56.3451 4.23339 56.3358 4.283 56.317 4.3294C56.2981 4.37579 56.2701 4.41803 56.2344 4.45365C56.1988 4.48927 56.1563 4.51756 56.1094 4.53687C56.0625 4.55618 56.0122 4.56612 55.9614 4.56612H54.2454C53.1366 4.5272 52.6086 5.02662 52.6548 6.05789V10.7732C52.6539 10.8231 52.6632 10.8728 52.682 10.9192C52.7009 10.9655 52.7289 11.0078 52.7645 11.0434C52.8002 11.079 52.8427 11.1073 52.8896 11.1266C52.9364 11.1459 52.9868 11.1559 53.0376 11.1559H55.9614C56.0629 11.1559 56.1603 11.1955 56.2321 11.2661C56.3039 11.3366 56.3442 11.4323 56.3442 11.5321V14.2691C56.3442 14.3689 56.3039 14.4646 56.2321 14.5352C56.1603 14.6057 56.0629 14.6453 55.9614 14.6453H53.0574C52.9559 14.6453 52.8585 14.685 52.7867 14.7555C52.7149 14.8261 52.6746 14.9218 52.6746 15.0215V22.8047C52.6746 22.8547 52.6645 22.9041 52.6448 22.9502C52.6252 22.9963 52.5964 23.038 52.5601 23.073C52.5239 23.108 52.4809 23.1356 52.4337 23.1541C52.3865 23.1727 52.336 23.1818 52.2852 23.1809H49.368C49.2658 23.1809 49.1678 23.1415 49.0949 23.0711C49.0221 23.0007 48.9803 22.9051 48.9786 22.8047V6.05789Z" fill="white"/>
<path d="M40.491 1.18045H37.5672C37.3558 1.18045 37.1844 1.34888 37.1844 1.55664V22.8826C37.1844 23.0903 37.3558 23.2587 37.5672 23.2587H40.491C40.7024 23.2587 40.8738 23.0903 40.8738 22.8826V1.55664C40.8738 1.34888 40.7024 1.18045 40.491 1.18045Z" fill="white"/>
<path d="M46.3584 1.9458H43.4346C43.2232 1.9458 43.0518 2.11422 43.0518 2.32198V5.19527C43.0518 5.40304 43.2232 5.57146 43.4346 5.57146H46.3584C46.5698 5.57146 46.7412 5.40304 46.7412 5.19527V2.32198C46.7412 2.11422 46.5698 1.9458 46.3584 1.9458Z" fill="white"/>
<path d="M43.4346 7.61454H46.3584C46.5698 7.61454 46.7412 7.78297 46.7412 7.99073V22.8826C46.7412 23.0903 46.5698 23.2587 46.3584 23.2587H43.4346C43.2232 23.2587 43.0518 23.0903 43.0518 22.8826V7.99073C43.0518 7.78297 43.2232 7.61454 43.4346 7.61454Z" fill="white"/>
<path fill-rule="evenodd" clip-rule="evenodd" d="M27.621 7.67942H20.8362C20.7393 7.68112 20.647 7.72014 20.5791 7.78807C20.5112 7.85601 20.4732 7.94742 20.4732 8.04264V27.6368C20.4732 27.732 20.5112 27.8234 20.5791 27.8914C20.647 27.9593 20.7393 27.9983 20.8362 28H23.9316C23.9798 28 24.0276 27.9906 24.0721 27.9723C24.1165 27.9539 24.1569 27.9271 24.1907 27.8933C24.2245 27.8594 24.251 27.8193 24.2689 27.7753C24.2868 27.7313 24.2955 27.6842 24.2946 27.6368V23.2652H27.5946C29.5551 23.2652 31.4353 22.4999 32.8216 21.1376C34.2078 19.7753 34.9866 17.9276 34.9866 16.0009V14.9178C34.9779 13.0007 34.1991 11.1645 32.8197 9.80892C31.4403 8.45331 29.5718 7.68796 27.621 7.67942ZM31.02 16.0009C31.02 16.8857 30.6628 17.7344 30.0268 18.3606C29.3908 18.9868 28.5279 19.3395 27.6276 19.3412H24.3276V11.6099H27.6276C28.5228 11.6099 29.3817 11.9576 30.0171 12.5772C30.6526 13.1968 31.0131 14.0381 31.02 14.9178V16.0009Z" fill="white"/>
<path d="M20.4732 0L20.4733 4.61154L18.3811 2.55548L20.4732 0Z" fill="white"/>
</g>
<defs>
<clipPath id="clip0">
<rect width="66" height="28" fill="white"/>
</clipPath>
</defs>
</svg>
