<svg width="120" height="60" viewBox="0 0 120 60" fill="none" xmlns="http://www.w3.org/2000/svg">
<path fill-rule="evenodd" clip-rule="evenodd" d="M28.5717 5.56794C25.9419 11.0332 16.5729 16.3341 28.1259 24.7579C31.3105 27.1206 36.6525 28.5589 33.9281 34.1289C33.6856 34.5542 34.1089 34.6713 34.4869 34.3529C38.3907 29.8327 44.7394 22.6827 39.3933 16.86C36.3525 13.5726 30.1271 11.4153 28.8861 8.29236C28.6457 7.68824 28.9108 6.81506 29.2436 6.12474C29.5107 5.48369 28.7156 5.31519 28.5738 5.5659L28.5717 5.56794Z" fill="#646B73"/>
<path fill-rule="evenodd" clip-rule="evenodd" d="M28.7143 5.56794C26.0844 11.0332 16.7155 16.3341 28.2685 24.7579C31.4531 27.1206 36.7951 28.5589 34.0707 34.1289C33.8282 34.5542 34.2515 34.6713 34.6295 34.3529C38.5332 29.8327 44.8819 22.6827 39.5359 16.86C36.4951 13.5726 30.2697 11.4153 29.0287 8.29236C28.7883 7.68824 29.0533 6.81506 29.3862 6.12474C29.6533 5.48369 28.8581 5.31519 28.7164 5.5659L28.7143 5.56794Z" fill="#646B73"/>
<path fill-rule="evenodd" clip-rule="evenodd" d="M23.1727 24.4846C21.8228 28.1623 14.9954 32.3948 24.1096 37.2765C26.2258 38.536 28.9379 40.1118 28.6462 42.4171C28.5332 42.7109 28.7982 42.752 28.9996 42.5137C31.9993 39.0619 34.2593 34.1515 30.5795 30.8435C28.6585 28.9821 24.1076 27.9671 23.6186 24.7886C23.7295 24.3531 23.2364 24.312 23.1707 24.4866L23.1727 24.4846Z" fill="#646B73"/>
<path d="M16.9902 43.8553H40.0284V46.6846H16.9902V43.8553Z" fill="#646B73"/>
<path fill-rule="evenodd" clip-rule="evenodd" d="M17.017 43.7772L16 46.6352L17.7444 46.6598L17.017 43.7772ZM40.008 43.7772L41.025 46.6352L39.2806 46.6598L40.008 43.7772ZM21.8474 45.9243L23.5465 50.5451L33.5339 50.5103L35.0975 45.9244H21.8494L21.8474 45.9243Z" fill="#646B73"/>
<path d="M51.9629 20.5843H56.1533V39.4184H51.9629V20.5843Z" fill="#646B73"/>
<path fill-rule="evenodd" clip-rule="evenodd" d="M56.0939 20.5815L62.8807 20.6409C66.25 20.5503 68.8265 26.5585 64.4747 29.7862C70.279 31.4086 68.1838 39.2712 63.5319 39.2854L56.0373 39.4043L54.9756 35.9812L62.1162 36.0406C64.3785 36.1058 64.5229 31.5388 62.1757 31.4963L55.6268 31.6152L55.4484 28.0761H61.2895C63.9509 28.1865 63.1242 23.9423 61.3489 23.9451L55.5079 23.8262L54.9189 21.1704L56.0996 20.5815L56.0939 20.5815Z" fill="#646B73"/>
<path d="M70.0576 20.5843H74.248V39.4184H70.0576V20.5843Z" fill="#646B73"/>
<path fill-rule="evenodd" clip-rule="evenodd" d="M74.1887 20.5815L80.9754 20.6409C84.3447 20.5503 86.9212 26.5585 82.5695 29.7862C88.3737 31.4086 86.2785 39.2712 81.6266 39.2854L74.132 39.4043L73.0703 35.9812L80.211 36.0406C82.4732 36.1058 82.6176 31.5388 80.2704 31.4963L73.7215 31.6152L73.5431 28.0761H79.3842C82.0457 28.1865 81.2189 23.9423 79.4437 23.9451L73.6026 23.8262L73.0137 21.1704L74.1943 20.5815L74.1887 20.5815Z" fill="#646B73"/>
<path d="M87.958 20.5843H92.1484V39.4184H87.958V20.5843Z" fill="#646B73"/>
<path fill-rule="evenodd" clip-rule="evenodd" d="M92.0891 20.5815L98.8758 20.6409C102.245 20.5503 104.822 26.5585 100.47 29.7862C106.274 31.4086 104.179 39.2712 99.527 39.2854L92.0325 39.4043L90.9707 35.9812L98.1114 36.0406C100.374 36.1058 100.518 31.5388 98.1708 31.4963L91.6219 31.6152L91.4435 28.0761H97.2845C99.946 28.1865 99.1193 23.9423 97.344 23.9451L91.503 23.8262L90.9141 21.1704L92.0947 20.5815L92.0891 20.5815Z" fill="#646B73"/>
</svg>
