<svg width="80" height="42" viewBox="0 0 80 42" fill="none" xmlns="http://www.w3.org/2000/svg">
<g opacity="0.32">
<path d="M24.0282 8.39716C24.0365 8.39716 24.053 8.39716 24.1028 8.41344V8.38089H24.0033C24.0151 8.3925 24.0185 8.39583 24.0225 8.39678C24.0241 8.39716 24.0258 8.39716 24.0282 8.39716Z" fill="white"/>
<path d="M21.3179 9.87807C21.351 9.91062 21.351 9.97571 21.351 10.0083C21.4007 9.99199 21.4256 9.99199 21.4422 9.99199C21.4588 9.99199 21.4671 9.99199 21.4836 9.97571C21.5168 9.94317 21.5168 9.68279 21.4505 9.58515C21.4505 9.65024 21.3842 9.78043 21.3179 9.87807Z" fill="white"/>
<path d="M20.4559 18.8286C20.5222 18.7635 20.5222 18.6333 20.4559 18.5682V18.8286Z" fill="white"/>
<path d="M41.4422 18.8286V18.9263C41.5251 18.91 41.608 18.8856 41.6908 18.8612C41.7737 18.8368 41.8566 18.8123 41.9395 18.7961H42.039V18.6984L41.6411 18.6008C41.5748 18.6984 41.5085 18.7635 41.4422 18.8286Z" fill="white"/>
<path d="M20.2569 18.9263V19.089H20.2901C20.3232 18.9914 20.3564 18.7635 20.2901 18.6659C20.2901 18.7783 20.2743 18.8442 20.2645 18.8848C20.2601 18.903 20.2569 18.9162 20.2569 18.9263Z" fill="white"/>
<path d="M20.489 19.1215C20.5553 19.0565 20.5553 18.9263 20.489 18.8612V19.1215Z" fill="white"/>
<path d="M40.746 18.9263C40.6974 18.9739 40.6489 19.0041 40.5873 19.0424C40.5648 19.0565 40.5405 19.0716 40.5139 19.089H40.4807V19.1215H40.3813C40.3896 19.1297 40.3937 19.1358 40.3968 19.1404C40.3978 19.1419 40.3987 19.1432 40.3997 19.1444C40.4001 19.1449 40.4005 19.1454 40.4009 19.1459C40.4014 19.1466 40.402 19.1472 40.4027 19.1477C40.41 19.1541 40.423 19.1541 40.4807 19.1541V19.1215C40.5802 19.089 40.6797 19.089 40.8454 19.089C40.828 19.0376 40.8197 19.0132 40.8061 18.9922C40.7939 18.9733 40.7774 18.9571 40.746 18.9263Z" fill="white"/>
<path d="M40.6465 19.3168H40.547C40.6181 19.3633 40.6722 19.3434 40.7457 19.3164C40.7751 19.3055 40.8075 19.2936 40.8454 19.2843C40.8454 19.1866 40.8454 19.1541 40.8123 19.1215C40.7904 19.2073 40.7686 19.2225 40.7278 19.2507C40.7066 19.2654 40.6804 19.2835 40.6465 19.3168Z" fill="white"/>
<path d="M40.3813 19.1866H40.2818C40.2901 19.1948 40.2942 19.2009 40.2973 19.2055C40.2995 19.2086 40.3011 19.211 40.3032 19.2128C40.3105 19.2192 40.3235 19.2192 40.3812 19.2192L40.3813 19.1866Z" fill="white"/>
<path d="M20.5553 19.3819C20.5885 19.3168 20.5885 19.2843 20.5553 19.2192V19.3819Z" fill="white"/>
<path d="M39.7845 19.3168C39.7679 19.3168 39.7431 19.3087 39.7182 19.3006C39.6933 19.2924 39.6685 19.2843 39.6519 19.2843C39.6187 19.3168 39.6187 19.3168 39.5193 19.3168V19.3494H39.4861C39.5193 19.3819 39.5193 19.447 39.5193 19.4796C39.685 19.447 39.7182 19.4145 39.7845 19.3168Z" fill="white"/>
<path d="M40.5802 19.3494H40.4807C40.4869 19.3554 40.4907 19.3592 40.4936 19.3616C40.4962 19.3638 40.498 19.3648 40.4999 19.3653C40.5003 19.3654 40.5008 19.3654 40.5012 19.3655C40.5014 19.3655 40.5017 19.3656 40.5019 19.3656C40.503 19.3657 40.5042 19.3657 40.5056 19.3657C40.5139 19.3657 40.5305 19.3657 40.5802 19.3819V19.3494Z" fill="white"/>
<path d="M23.1082 21.3673C23.1413 21.3836 23.1496 21.3836 23.1579 21.3836C23.1662 21.3836 23.1745 21.3836 23.2076 21.3999V21.3673H23.1082Z" fill="white"/>
<path d="M23.075 21.465C23.0637 21.4539 23.0562 21.4465 23.0474 21.4417C23.0303 21.4324 23.0079 21.4324 22.9424 21.4324C22.9738 21.4324 22.9903 21.4324 23.0061 21.4359C23.0235 21.4397 23.0402 21.4479 23.075 21.465Z" fill="white"/>
<path d="M25.0642 21.823V21.7904H24.9648C24.9683 21.7939 24.9711 21.797 24.9734 21.7998C24.9764 21.8035 24.9785 21.8066 24.9803 21.8093C24.9824 21.8124 24.9841 21.8148 24.9862 21.8166C24.9935 21.823 25.0065 21.823 25.0642 21.823Z" fill="white"/>
<path d="M24.9316 21.8881V21.8555H24.8322C24.8383 21.8615 24.8421 21.8653 24.845 21.8677C24.8466 21.8691 24.8479 21.87 24.8492 21.8706C24.8499 21.871 24.8506 21.8713 24.8514 21.8714L24.8526 21.8717C24.8539 21.8718 24.8553 21.8718 24.857 21.8718C24.8653 21.8718 24.8819 21.8718 24.9316 21.8881Z" fill="white"/>
<path d="M22.0804 29.0811C22.0638 29.0323 22.0638 29.0078 22.0638 28.9916C22.0638 28.9753 22.0638 28.9672 22.0472 28.9509V29.0811H22.0804Z" fill="white"/>
<path d="M22.0804 29.0811C22.097 29.1136 22.097 29.1218 22.097 29.1299C22.097 29.138 22.097 29.1462 22.1136 29.1787H22.0804V29.0811Z" fill="white"/>
<path d="M22.1799 29.2764C22.1633 29.2438 22.1633 29.2357 22.1633 29.2275C22.1633 29.2194 22.1633 29.2113 22.1467 29.1787V29.2764H22.1799Z" fill="white"/>
<path d="M22.213 29.4065C22.1964 29.374 22.1964 29.3659 22.1964 29.3577C22.1964 29.3496 22.1964 29.3414 22.1799 29.3089V29.4065H22.213Z" fill="white"/>
<path d="M22.7103 31.9127C22.6937 31.8802 22.6937 31.872 22.6937 31.8639C22.6937 31.8557 22.6937 31.8476 22.6772 31.8151V31.9127H22.7103Z" fill="white"/>
<path d="M22.7766 32.0103C22.76 31.9778 22.76 31.9697 22.76 31.9615C22.76 31.9534 22.76 31.9452 22.7435 31.9127V32.0103H22.7766Z" fill="white"/>
<path d="M22.8098 32.108H22.7766V32.0103C22.7932 32.0429 22.7932 32.051 22.7932 32.0592C22.7932 32.0673 22.7932 32.0754 22.8098 32.108Z" fill="white"/>
<path d="M22.9092 32.3358H22.8761V32.2382L22.8098 32.108C22.8761 32.2056 22.8761 32.2056 22.9092 32.3358Z" fill="white"/>
<path d="M22.9424 32.4009H22.9092V32.3358V32.3033C22.9258 32.3358 22.9258 32.344 22.9258 32.3521C22.9258 32.3602 22.9258 32.3684 22.9424 32.4009Z" fill="white"/>
<path d="M22.9424 32.4009C22.959 32.4335 22.959 32.4416 22.959 32.4497C22.959 32.4579 22.959 32.466 22.9755 32.4986H22.9424V32.4009Z" fill="white"/>
<path d="M22.4451 32.1405C22.4285 32.108 22.4285 32.0998 22.4285 32.0917C22.4285 32.0836 22.4285 32.0754 22.4119 32.0429V32.1405H22.4451Z" fill="white"/>
<path d="M22.5114 32.2382C22.4948 32.2056 22.4948 32.1975 22.4948 32.1894C22.4948 32.1812 22.4948 32.1731 22.4782 32.1405V32.2382H22.5114Z" fill="white"/>
<path d="M22.5445 32.3684C22.528 32.3358 22.528 32.3277 22.528 32.3195C22.528 32.3114 22.528 32.3033 22.5114 32.2707V32.3684H22.5445Z" fill="white"/>
<path d="M22.5445 32.3684V32.3358C22.5611 32.3684 22.5611 32.3765 22.5611 32.3846C22.5611 32.3928 22.5611 32.4009 22.5777 32.4335H22.5445V32.3684Z" fill="white"/>
<path d="M23.0419 32.5637C23.0253 32.5311 23.0253 32.523 23.0253 32.5148C23.0253 32.5067 23.0253 32.4986 23.0087 32.466V32.5637H23.0419Z" fill="white"/>
<path d="M23.075 32.6613H23.0419V32.5637C23.0584 32.5962 23.0584 32.6043 23.0584 32.6125C23.0584 32.6206 23.0584 32.6287 23.075 32.6613Z" fill="white"/>
<path d="M23.075 32.6613V32.6287C23.0916 32.6613 23.0916 32.6694 23.0916 32.6776C23.0916 32.6857 23.0916 32.6938 23.1082 32.7264H23.075V32.6613Z" fill="white"/>
<path d="M41.0775 33.8655H40.8454C40.7791 33.8981 40.7128 33.8981 40.5802 33.8981V33.9306H40.6133C40.687 33.9849 40.7607 33.9889 40.8344 33.9929C40.8933 33.9961 40.9522 33.9994 41.0112 34.0283H41.1438V33.9957H41.1106C41.1106 33.9306 41.1106 33.8981 41.0775 33.8655Z" fill="white"/>
<path d="M35.574 34.1259C35.5627 34.1148 35.5552 34.1075 35.5463 34.1027C35.5292 34.0934 35.5069 34.0934 35.4414 34.0934C35.5077 34.0934 35.5077 34.0934 35.574 34.1259Z" fill="white"/>
<path d="M35.375 34.1585C35.3465 34.1445 35.3302 34.1365 35.313 34.1319C35.2903 34.1259 35.2659 34.1259 35.2093 34.1259C35.2424 34.1585 35.2756 34.1585 35.375 34.1585Z" fill="white"/>
<path d="M34.8446 34.191C34.9076 34.2322 34.9572 34.2213 35.0188 34.2077C35.0546 34.1998 35.0943 34.191 35.143 34.191C35.0767 34.1585 35.0435 34.1585 34.9109 34.1585C34.905 34.1643 34.901 34.1682 34.8984 34.1706C34.8964 34.1724 34.8951 34.1734 34.894 34.174C34.8933 34.1744 34.8927 34.1746 34.8921 34.1747C34.8882 34.1753 34.8836 34.1719 34.8446 34.191Z" fill="white"/>
<path d="M40.9117 34.2561V34.2236H40.5139C40.4476 34.2887 38.5247 34.3538 38.3257 34.3538C38.4765 34.4648 38.6915 34.4496 38.916 34.4337C39.0865 34.4217 39.2624 34.4093 39.4198 34.4514C39.7182 34.5165 40.0497 34.5165 40.547 34.484C40.5139 34.4514 40.4559 34.4351 40.3978 34.4188C40.3398 34.4026 40.2818 34.3863 40.2487 34.3538H40.2155C40.2818 34.3049 40.3979 34.3049 40.5139 34.3049C40.6299 34.3049 40.746 34.3049 40.8123 34.2561H40.9117Z" fill="white"/>
<path d="M28.678 34.3863V34.3538H28.5785C28.6095 34.3538 28.6188 34.3538 28.6266 34.3571C28.63 34.3585 28.6331 34.3605 28.6375 34.3634C28.6448 34.3682 28.6559 34.3755 28.678 34.3863Z" fill="white"/>
<path d="M40.978 34.4514H41.2101V34.4189C41.1438 34.3863 41.0443 34.3863 40.9117 34.3863C40.9117 34.4064 40.9244 34.4141 40.9419 34.4247C40.9527 34.4313 40.9654 34.439 40.978 34.4514Z" fill="white"/>
<path d="M28.4459 34.4189H28.3465C28.363 34.4351 28.363 34.4351 28.3713 34.4351C28.3796 34.4351 28.3962 34.4351 28.4459 34.4514V34.4189Z" fill="white"/>
<path d="M35.143 34.484H35.0435C35.0785 34.5183 35.0858 34.5254 35.0946 34.5293C35.0969 34.5304 35.0994 34.5312 35.1024 34.5322C35.1098 34.5346 35.1209 34.5382 35.143 34.549V34.484Z" fill="white"/>
<path d="M35.0104 34.5816C34.999 34.5705 34.9916 34.5632 34.9827 34.5583C34.9656 34.549 34.9433 34.549 34.8777 34.549C34.9127 34.5662 34.9292 34.5743 34.9467 34.5781C34.9624 34.5816 34.979 34.5816 35.0104 34.5816Z" fill="white"/>
<path d="M28.6448 34.7118V34.6792H28.678V34.5816H28.4459C28.4791 34.5979 28.5122 34.6223 28.5454 34.6467C28.5785 34.6711 28.6117 34.6955 28.6448 34.7118Z" fill="white"/>
<path d="M24.1028 34.9722C24.0765 35.0238 24.045 35.0498 24.0248 35.0665C23.9941 35.0919 23.9896 35.0956 24.0696 35.1349C24.0814 35.1465 24.0848 35.1498 24.0888 35.1508C24.0904 35.1512 24.0921 35.1512 24.0945 35.1512C24.1028 35.1512 24.1194 35.1512 24.1691 35.1674V35.1349H24.2022C24.1801 35.0915 24.1691 35.0662 24.1617 35.0493C24.1561 35.0365 24.1527 35.0286 24.1481 35.0213C24.1406 35.0093 24.1302 34.9991 24.1028 34.9722Z" fill="white"/>
<path d="M45.6527 14.4022C45.6527 14.585 45.705 14.6857 45.7627 14.7966C45.8076 14.883 45.8557 14.9756 45.8848 15.1182C46.0174 14.9229 45.8185 14.4998 45.6527 14.4022Z" fill="white"/>
<path d="M36.5498 3.47616C36.5696 3.46699 36.5753 3.46434 36.5766 3.46034C36.5768 3.45951 36.5769 3.45863 36.5769 3.45762C36.5768 3.45665 36.5767 3.45555 36.5765 3.45428C36.5754 3.44472 36.573 3.42496 36.6017 3.36858C36.552 3.36858 36.5023 3.36044 36.4525 3.35231C36.4028 3.34417 36.3531 3.33603 36.3034 3.33603C36.3238 3.39616 36.3693 3.41926 36.4168 3.44334C36.4464 3.45836 36.4768 3.47376 36.5023 3.49877C36.5235 3.48833 36.5388 3.48124 36.5498 3.47616Z" fill="white"/>
<path d="M35.806 3.36858H35.7066C35.7149 3.37672 35.719 3.38282 35.7221 3.3874C35.7315 3.40113 35.7315 3.40113 35.806 3.40113V3.36858Z" fill="white"/>
<path d="M35.9387 3.43368H35.8392C35.851 3.44529 35.8544 3.44861 35.8584 3.44957C35.8593 3.44978 35.8602 3.44987 35.8613 3.44992C35.8621 3.44995 35.863 3.44995 35.8641 3.44995C35.8724 3.44995 35.8889 3.44995 35.9387 3.46622C35.9505 3.47783 35.9539 3.48116 35.9579 3.48211C35.9595 3.4825 35.9612 3.4825 35.9635 3.4825C35.9718 3.4825 35.9884 3.4825 36.0381 3.49877V3.46622H35.9387V3.43368Z" fill="white"/>
<path d="M36.5686 3.53132C36.6017 3.54759 36.61 3.54759 36.6183 3.54759C36.6266 3.54759 36.6349 3.54759 36.668 3.56387V3.53132H36.5686Z" fill="white"/>
<path d="M36.8162 3.51759C36.8183 3.52069 36.8199 3.5231 36.8221 3.52496C36.8293 3.53132 36.8424 3.53132 36.9001 3.53132V3.49877H36.8007C36.8089 3.50691 36.8131 3.51301 36.8162 3.51759Z" fill="white"/>
<path d="M36.237 3.56387H36.1376C36.1459 3.572 36.15 3.5781 36.1531 3.58268C36.1552 3.58579 36.1569 3.58819 36.159 3.59005C36.1663 3.59641 36.1793 3.59641 36.237 3.59641V3.56387Z" fill="white"/>
<path d="M36.8007 3.59641H36.7012C36.7095 3.60455 36.7136 3.61065 36.7167 3.61523C36.7188 3.61834 36.7205 3.62074 36.7226 3.6226C36.7299 3.62896 36.7429 3.62896 36.8007 3.62896C36.8125 3.64057 36.8159 3.6439 36.8199 3.64485C36.8215 3.64523 36.8232 3.64523 36.8255 3.64523C36.8338 3.64523 36.8504 3.64523 36.9001 3.66151V3.62896H36.8007V3.59641Z" fill="white"/>
<path d="M36.4917 3.71031C36.4924 3.71033 36.4932 3.71033 36.494 3.71033C36.5023 3.71033 36.5189 3.71033 36.5686 3.7266H36.5354C36.5473 3.73821 36.5506 3.74154 36.5546 3.74249C36.5562 3.74288 36.5579 3.74288 36.5603 3.74288C36.5686 3.74288 36.5852 3.74288 36.6349 3.75915V3.7266H36.5686V3.69406H36.4691C36.481 3.70567 36.4843 3.70899 36.4883 3.70995C36.4894 3.7102 36.4905 3.71028 36.4917 3.71031Z" fill="white"/>
<path d="M36.668 3.75915C36.6799 3.77076 36.6833 3.77409 36.6872 3.77504C36.6888 3.77542 36.6905 3.77542 36.6929 3.77542C36.7012 3.77542 36.7178 3.77542 36.7675 3.7917V3.75915H36.668Z" fill="white"/>
<path d="M36.7831 3.8431C36.7851 3.84615 36.7868 3.84859 36.7889 3.85043C36.7962 3.85679 36.8092 3.85679 36.867 3.85679H36.8338C36.867 3.87307 36.8753 3.87307 36.8835 3.87307C36.8918 3.87307 36.9001 3.87307 36.9333 3.88934V3.85679H36.867V3.82424H36.7675C36.7758 3.83238 36.78 3.83852 36.7831 3.8431Z" fill="white"/>
<path d="M36.8007 4.4101C36.7618 4.4101 36.723 4.39893 36.6908 4.38968C36.668 4.38314 36.6486 4.37755 36.6349 4.37755C36.5904 4.42126 36.5392 4.45193 36.4903 4.48123C36.43 4.51738 36.3731 4.55145 36.3365 4.60538H36.3034V4.63793C36.4431 4.62079 36.5184 4.59461 36.5923 4.56891C36.6587 4.54583 36.724 4.52314 36.8338 4.50774V4.4101H36.8007Z" fill="white"/>
<path d="M36.4028 5.15869C36.3365 5.0936 36.2702 5.0936 36.1707 5.15869H36.0381V5.12614C36.202 5.08018 36.3163 5.018 36.4393 4.95104C36.4905 4.92317 36.5433 4.89447 36.6017 4.86576C36.6017 4.84949 36.61 4.83322 36.6183 4.81694C36.6266 4.80067 36.6349 4.7844 36.6349 4.76812H36.5354C36.2959 4.98758 35.8795 5.10134 35.464 5.21486C35.0168 5.33703 34.5707 5.45892 34.3473 5.712H34.2478C34.3766 5.78783 34.5453 5.70662 34.6919 5.63607C34.7341 5.61577 34.7744 5.59635 34.8114 5.58181C34.8446 5.57096 34.8814 5.56011 34.9183 5.54926C34.9919 5.52756 35.0656 5.50586 35.1098 5.48417C35.1639 5.46648 35.3159 5.48724 35.4434 5.50467C35.5505 5.5193 35.6403 5.53157 35.6403 5.51671V5.38652C35.6894 5.37446 35.7932 5.34007 35.9093 5.30154C36.1068 5.23608 36.3402 5.15869 36.4028 5.15869Z" fill="white"/>
<path d="M37.0659 4.80067H36.9664C36.9783 4.81228 36.9816 4.81561 36.9856 4.81656C36.9865 4.81677 36.9874 4.81687 36.9885 4.81691C36.9893 4.81694 36.9902 4.81694 36.9913 4.81694C36.9996 4.81694 37.0162 4.81694 37.0659 4.83322V4.80067Z" fill="white"/>
<path d="M36.7675 4.89831V4.93086C36.867 4.93086 36.9001 4.93086 36.9333 4.89831H36.9664C36.9551 4.8872 36.9477 4.87988 36.9388 4.87506C36.9217 4.86576 36.8993 4.86576 36.8338 4.86576C36.822 4.86576 36.8186 4.86576 36.8161 4.86724C36.8151 4.86783 36.8143 4.86866 36.8131 4.86983C36.809 4.8739 36.8007 4.88204 36.7675 4.89831Z" fill="white"/>
<path d="M31.5292 6.10257H31.4298C31.4416 6.11418 31.445 6.1175 31.449 6.11846C31.4497 6.11864 31.4505 6.11874 31.4514 6.11879L31.4546 6.11884C31.4629 6.11884 31.4795 6.11884 31.5292 6.13511V6.10257Z" fill="white"/>
<path d="M29.6395 6.13511H29.54C29.5518 6.14672 29.5552 6.15005 29.5592 6.15101C29.5608 6.15139 29.5625 6.15139 29.5649 6.15139C29.5731 6.15139 29.5897 6.15139 29.6395 6.16766V6.13511Z" fill="white"/>
<path d="M31.3966 6.13511H31.2971C31.309 6.14672 31.3124 6.15005 31.3163 6.15101C31.3179 6.15139 31.3196 6.15139 31.322 6.15139C31.3303 6.15139 31.3469 6.15139 31.3966 6.16766V6.13511Z" fill="white"/>
<path d="M31.264 6.16766H31.1645C31.1764 6.17927 31.1797 6.1826 31.1837 6.18355C31.1853 6.18394 31.187 6.18394 31.1894 6.18394C31.1977 6.18394 31.2143 6.18394 31.264 6.20021V6.16766Z" fill="white"/>
<path d="M31.0319 6.23276C31.0651 6.2653 31.0651 6.2653 31.1645 6.2653C31.1314 6.23276 31.1314 6.23276 31.0319 6.23276Z" fill="white"/>
<path d="M30.8993 6.2653C30.9159 6.27344 30.9262 6.27954 30.934 6.28412C30.9573 6.29785 30.9573 6.29785 31.0319 6.29785C30.9988 6.2653 30.9988 6.2653 30.8993 6.2653Z" fill="white"/>
<path d="M24.799 6.3304C24.8103 6.34151 24.8178 6.34883 24.8266 6.35365C24.8437 6.36295 24.8661 6.36295 24.9316 6.36295C24.9002 6.36295 24.8837 6.36295 24.868 6.35949C24.8504 6.35565 24.8339 6.34754 24.799 6.3304Z" fill="white"/>
<path d="M24.6995 6.39549H24.6001C24.6119 6.4071 24.6153 6.41043 24.6193 6.41139C24.6209 6.41177 24.6226 6.41177 24.6249 6.41177C24.6332 6.41177 24.6498 6.41177 24.6995 6.42804V6.39549Z" fill="white"/>
<path d="M24.5338 6.42804C24.5421 6.43617 24.5462 6.44227 24.5493 6.44684L24.5519 6.45049C24.5529 6.45193 24.554 6.45317 24.5552 6.45423C24.5625 6.46059 24.5755 6.46059 24.6332 6.46059V6.42804H24.5338Z" fill="white"/>
<path d="M31.2308 6.55823H31.1314C31.1397 6.56637 31.1438 6.57247 31.1469 6.57705C31.149 6.5801 31.1507 6.58258 31.1528 6.58442C31.1601 6.59078 31.1731 6.59078 31.2308 6.59078V6.55823Z" fill="white"/>
<path d="M24.7327 6.72097V6.68842L24.7659 6.65587C24.7373 6.64186 24.721 6.63388 24.7038 6.62933C24.6811 6.62333 24.6567 6.62333 24.6001 6.62333C24.6664 6.65587 24.6995 6.68842 24.7327 6.72097Z" fill="white"/>
<path d="M31.0982 6.65587V6.62333H30.9988C31.0093 6.62333 31.0131 6.62333 31.0166 6.62437C31.0187 6.62497 31.0206 6.62591 31.0236 6.62739C31.0319 6.63146 31.0485 6.6396 31.0982 6.65587Z" fill="white"/>
<path d="M30.9988 6.65587H30.8993C30.9111 6.66748 30.9145 6.67081 30.9185 6.67176C30.9191 6.67192 30.9198 6.67201 30.9205 6.67207C30.9216 6.67215 30.9228 6.67215 30.9242 6.67215C30.9324 6.67215 30.949 6.67215 30.9988 6.68842V6.65587Z" fill="white"/>
<path d="M20.3564 3.49877H20.3232V3.56387H20.2238C20.2569 3.58014 20.2652 3.58014 20.2735 3.58014C20.2818 3.58014 20.2901 3.58014 20.3232 3.59641V3.56387C20.4559 3.53132 20.5885 3.46622 20.6879 3.40113L20.7211 3.36858H20.6216C20.6016 3.37843 20.5784 3.38829 20.5532 3.39905C20.4951 3.42382 20.4258 3.45338 20.3564 3.49877Z" fill="white"/>
<path d="M20.1906 3.62896L20.2238 3.59641H20.1243C20.1243 3.62896 20.1575 3.66151 20.1906 3.62896Z" fill="white"/>
<path d="M20.1243 3.69406H20.0249C20.0367 3.70566 20.0401 3.70899 20.0441 3.70995C20.0444 3.71003 20.0447 3.71009 20.0451 3.71014C20.0453 3.71018 20.0456 3.71021 20.0459 3.71023C20.047 3.71033 20.0482 3.71033 20.0497 3.71033C20.058 3.71033 20.0746 3.71033 20.1243 3.7266V3.69406Z" fill="white"/>
<path d="M20.0249 3.7266H19.9254C19.9372 3.73821 19.9406 3.74154 19.9446 3.74249C19.9462 3.74288 19.9479 3.74288 19.9503 3.74288C19.9586 3.74288 19.9751 3.74288 20.0249 3.75915V3.7266Z" fill="white"/>
<path d="M19.8923 3.82424H19.7928C19.8011 3.83237 19.8052 3.83847 19.8083 3.84305C19.8104 3.84615 19.8121 3.84857 19.8142 3.85043C19.8215 3.85679 19.8345 3.85679 19.8923 3.85679V3.82424Z" fill="white"/>
<path d="M16.378 5.45162V5.51671H16.4111C16.4111 5.49267 16.4156 5.48194 16.418 5.47634C16.419 5.47388 16.4197 5.47241 16.4193 5.47123C16.4187 5.46947 16.416 5.46836 16.4092 5.46561C16.4029 5.46302 16.393 5.45899 16.378 5.45162Z" fill="white"/>
<path d="M20.3232 6.13511H20.4559V5.90728C20.4161 5.9203 20.3975 5.93332 20.379 5.94634C20.3511 5.96587 20.3232 5.9854 20.2238 6.00492C20.2404 6.0212 20.2569 6.04561 20.2735 6.07002C20.2901 6.09443 20.3067 6.11884 20.3232 6.13511Z" fill="white"/>
<path d="M19.7265 6.23276C19.7596 6.21648 19.7679 6.21648 19.7762 6.21648C19.7845 6.21648 19.7928 6.21648 19.8259 6.20021L19.5939 6.16766C19.5773 6.18394 19.5607 6.20834 19.5441 6.23275C19.5276 6.25717 19.511 6.28158 19.4944 6.29785C19.5575 6.29785 19.6205 6.27169 19.6667 6.25254C19.6933 6.24148 19.7143 6.23276 19.7265 6.23276Z" fill="white"/>
<path d="M12.6316 9.38986V9.4875H12.6647C12.6647 9.41427 12.6647 9.41427 12.6507 9.40512C12.6461 9.40207 12.6399 9.398 12.6316 9.38986Z" fill="white"/>
<path d="M9.91297 16.355V16.5178C9.97928 16.4527 9.97928 16.4201 9.91297 16.355Z" fill="white"/>
<path d="M18.6158 17.4616C18.6158 17.4372 18.5993 17.4128 18.5661 17.364V17.5593C18.5993 17.5104 18.6158 17.486 18.6158 17.4616Z" fill="white"/>
<path d="M17.041 22.0834H16.9416C16.9534 22.095 16.9568 22.0983 16.9608 22.0993C16.9612 22.0994 16.9616 22.0994 16.9621 22.0995C16.9633 22.0996 16.9647 22.0996 16.9664 22.0996C16.9747 22.0996 16.9913 22.0996 17.041 22.1159V22.0834Z" fill="white"/>
<path d="M16.9747 22.1485H16.8753C16.8871 22.1601 16.8905 22.1634 16.8945 22.1644C16.8961 22.1647 16.8977 22.1647 16.9001 22.1647C16.9084 22.1647 16.925 22.1647 16.9747 22.181V22.1485Z" fill="white"/>
<path d="M17.1736 22.4088V22.3763H17.24V22.3437H16.9747C17.0079 22.3437 17.1405 22.3763 17.1736 22.4088Z" fill="white"/>
<path d="M11.5707 22.6692C11.6701 22.6692 11.7033 22.6692 11.7364 22.6367C11.7483 22.6251 11.7516 22.6217 11.7526 22.6178C11.753 22.6163 11.753 22.6146 11.753 22.6123C11.753 22.6041 11.753 22.5879 11.7696 22.539C11.7395 22.5095 11.7298 22.5 11.7189 22.4924C11.7139 22.4889 11.7086 22.4858 11.7008 22.4812C11.6885 22.4739 11.6701 22.4631 11.637 22.4414C11.622 22.4634 11.6121 22.4805 11.6042 22.4941C11.5772 22.5407 11.5739 22.5464 11.4712 22.5716C11.5375 22.6041 11.5375 22.6041 11.5707 22.6692Z" fill="white"/>
<path d="M10.9739 22.8645V22.832H10.7418C10.7087 22.8971 10.6424 22.9622 10.6092 22.9947C10.7087 22.9947 10.8413 22.9296 10.9076 22.8645H10.9739Z" fill="white"/>
<path d="M16.7426 24.1013V24.0688H16.6432C16.6653 24.0796 16.6763 24.0868 16.6837 24.0917C16.6881 24.0946 16.6912 24.0966 16.6946 24.098C16.7024 24.1013 16.7117 24.1013 16.7426 24.1013Z" fill="white"/>
<path d="M16.61 24.1664V24.1339H16.5106C16.5548 24.1339 16.5548 24.1339 16.5695 24.1435C16.5769 24.1483 16.5879 24.1556 16.61 24.1664Z" fill="white"/>
<path d="M10.1782 25.8589V25.9565H10.2114C10.2114 25.7287 10.145 25.4358 10.0456 25.273C10.0456 25.5009 10.0787 25.7287 10.1782 25.8589Z" fill="white"/>
<path d="M10.2777 26.0867C10.2611 26.0379 10.2611 26.0135 10.2611 25.9972C10.2611 25.9809 10.2611 25.9728 10.2445 25.9565V26.0867H10.2777Z" fill="white"/>
<path d="M10.2777 26.0867C10.2942 26.103 10.2942 26.1111 10.2942 26.1274C10.2942 26.1437 10.2942 26.1681 10.3108 26.2169H10.2777V26.0867Z" fill="white"/>
<path d="M10.344 26.3471C10.3274 26.3145 10.3274 26.3064 10.3274 26.2983C10.3274 26.2901 10.3274 26.282 10.3108 26.2494V26.3471H10.344Z" fill="white"/>
<path d="M21.4173 32.5311C21.4007 32.4823 21.4007 32.4579 21.4007 32.4416C21.4007 32.4253 21.4007 32.4172 21.3842 32.4009V32.5311H21.4173Z" fill="white"/>
<path d="M28.4128 36.4043V36.3717H28.3133C28.3442 36.3717 28.3535 36.3717 28.3614 36.375C28.3647 36.3764 28.3678 36.3785 28.3722 36.3814C28.3796 36.3862 28.3907 36.3934 28.4128 36.4043Z" fill="white"/>
<path d="M28.3465 36.4368V36.4043H28.247C28.2588 36.4159 28.2622 36.4192 28.2662 36.4201C28.2678 36.4205 28.2695 36.4205 28.2719 36.4205C28.2801 36.4205 28.2967 36.4205 28.3465 36.4368Z" fill="white"/>
<path d="M30.4683 40.3425C30.6009 40.4401 31.0982 40.5052 31.264 40.375H31.5624V40.3425C31.4797 40.2884 31.42 40.2793 31.2881 40.2591C31.2612 40.2549 31.2314 40.2504 31.1977 40.2449C31.0651 40.3425 30.7004 40.3425 30.4683 40.3425Z" fill="white"/>
<path d="M31.0982 40.7656C31.2308 40.8633 31.5955 40.7982 31.695 40.7331H31.7944C31.7613 40.7005 31.7613 40.7005 31.6619 40.7005C31.5293 40.7656 31.2971 40.7656 31.0982 40.7656Z" fill="white"/>
<path d="M32.2586 20.0654C32.242 20.0492 32.2254 20.0247 32.2089 20.0003C32.1923 19.9759 32.1757 19.9515 32.1591 19.9352H31.9934C31.9436 19.9678 31.8773 19.9922 31.811 20.0166C31.7447 20.041 31.6784 20.0654 31.6287 20.098H31.5292C31.7079 20.1982 31.9258 20.1441 32.1074 20.0991C32.1617 20.0856 32.2128 20.0729 32.2586 20.0654Z" fill="white"/>
<path d="M32.4907 20.456C32.4575 20.4234 32.4575 20.4234 32.3581 20.4234C32.3912 20.456 32.3912 20.456 32.4907 20.456Z" fill="white"/>
<path d="M32.2586 20.5211H32.3581V20.4885H32.0928C32.0928 20.5536 32.126 20.6187 32.2586 20.5211Z" fill="white"/>
<path fill-rule="evenodd" clip-rule="evenodd" d="M48.4129 18.2069C50.4408 19.4542 52.3166 20.9027 52.3166 23.9386C52.2878 27.1901 50.2325 29.4837 47.2156 30.0299C47.1228 30.3012 46.9912 30.5508 46.8607 30.7985C46.7142 31.0764 46.569 31.3518 46.4816 31.6523H46.4484V31.4245C46.465 31.3594 46.4898 31.2943 46.5147 31.2292C46.5396 31.1641 46.5644 31.099 46.581 31.0339H46.5479V31.0665C46.3162 31.2939 46.1331 31.6485 45.9646 31.9747C45.892 32.1153 45.8221 32.2507 45.7522 32.3684C45.7024 32.4172 45.6693 32.5067 45.6361 32.5962C45.603 32.6857 45.5698 32.7752 45.5201 32.824C45.4676 32.8498 45.4151 32.8552 45.3647 32.8603C45.2877 32.8682 45.2155 32.8756 45.1554 32.9542C45.0994 33.0367 45.0493 33.1597 44.9977 33.2866C44.927 33.4604 44.8533 33.6413 44.7576 33.7354C44.741 33.7354 44.7161 33.7272 44.6913 33.7191C44.6664 33.711 44.6415 33.7028 44.625 33.7028C44.3597 33.8655 43.8624 34.484 43.6966 34.7443C44.1608 34.7443 45.7853 35.0047 46.0174 35.1674C45.1886 35.2 44.1608 35.2 43.2656 35.2C43.133 35.3953 42.8678 35.6557 42.6689 35.7859C42.6855 35.8021 42.702 35.8265 42.7186 35.8509C42.7352 35.8754 42.7518 35.8998 42.7683 35.916C42.5031 35.9811 41.1438 36.925 41.0112 37.0877C40.9853 37.1386 40.9695 37.1944 40.954 37.2493C40.9297 37.3351 40.906 37.4188 40.8454 37.4783C40.6861 37.6347 40.4799 37.7298 40.2697 37.8267C40.1738 37.8709 40.0769 37.9155 39.9834 37.9665C39.8732 38.0386 39.763 38.1285 39.6512 38.2198C39.4601 38.3756 39.2642 38.5354 39.0551 38.6175C39.0507 38.6 39.0468 38.5843 39.0433 38.5701L39.0431 38.5693C39.0207 38.4778 39.0129 38.4458 38.9557 38.3896C38.7118 38.5001 38.4892 38.6419 38.2638 38.7854C38.0908 38.8955 37.9161 39.0068 37.729 39.1057C37.649 39.1449 37.5601 39.1782 37.4702 39.2119C37.262 39.2899 37.0491 39.3697 36.9333 39.5288C37.0327 39.4963 37.1322 39.4637 37.2317 39.5288C36.9594 39.5555 36.6872 39.6481 36.4334 39.7344C36.378 39.7532 36.3236 39.7717 36.2702 39.7892C36.0053 39.8576 35.7463 39.9145 35.4956 39.9696C35.1502 40.0455 34.8204 40.118 34.5131 40.2123C34.426 40.2367 34.339 40.2474 34.252 40.2581C34.1069 40.2759 33.9619 40.2937 33.8168 40.375C33.7174 40.4401 33.6262 40.5296 33.535 40.6191C33.4438 40.7087 33.3527 40.7982 33.2532 40.8633C32.5901 41.2538 30.9656 41.742 29.8052 41.4491C29.4055 41.3568 29.0392 41.199 28.6826 41.0454L28.6815 41.0449C28.5356 40.9821 28.3913 40.9199 28.247 40.8633C28.247 40.8633 27.5176 41.0911 27.2855 40.9609C27.3347 40.9609 27.3856 40.9618 27.4371 40.9627C27.6986 40.9672 27.9759 40.972 28.1144 40.8633C27.9985 40.8206 27.7939 40.8214 27.5782 40.8223C27.3003 40.8235 27.0039 40.8247 26.8545 40.7331C26.924 40.7217 27.0421 40.7183 27.1734 40.7145C27.4179 40.7074 27.7082 40.6989 27.816 40.6354C27.377 40.396 26.9738 40.0861 26.5802 39.7835C26.4387 39.6747 26.2985 39.567 26.1583 39.4637C26.0257 39.3335 25.8599 39.1708 25.7273 39.008C25.6874 38.9801 25.6446 38.9511 25.6003 38.9213C25.3871 38.7772 25.1409 38.6109 25.0311 38.4222L25.0024 38.377L24.9746 38.3329L24.974 38.3319C24.6463 37.8126 24.1889 37.0877 23.4065 37.0877C23.1986 37.2919 22.8993 37.3552 22.5823 37.4222C22.394 37.462 22.1994 37.5032 22.0141 37.576C21.8815 37.6085 21.7157 37.7387 21.6162 37.8363V37.934H21.2516C21.2184 37.9665 21.1521 38.0316 21.1189 38.0967C21.0801 38.0967 21.064 38.0632 21.0507 38.0355C21.0413 38.0158 21.0332 37.9991 21.0195 37.9991C20.8537 37.9665 20.6879 38.1944 20.6548 38.292C20.6186 38.3631 20.6318 38.4051 20.6459 38.4497C20.6576 38.4869 20.6698 38.5258 20.6548 38.5849C20.6358 38.6782 20.5623 38.7394 20.4906 38.7992C20.4372 38.8437 20.3847 38.8874 20.3564 38.943C20.4559 38.9755 20.5387 39.0162 20.6216 39.0569C20.7045 39.0975 20.7874 39.1382 20.8869 39.1708V39.2033H20.7542C20.5222 39.008 19.627 38.7802 19.5276 38.8128C19.5171 38.8153 19.508 38.8175 19.4998 38.8193C19.4942 38.8206 19.4892 38.8218 19.4845 38.8228C19.4562 38.8292 19.4448 38.8317 19.4384 38.8387C19.434 38.8434 19.432 38.8501 19.4285 38.8613C19.4235 38.8772 19.4158 38.902 19.3949 38.943C19.2292 38.7802 18.7982 38.8779 18.5661 39.0731C18.5661 39.0846 18.5743 39.088 18.5834 39.0918C18.6004 39.0989 18.6208 39.1074 18.5993 39.1708H18.5661C18.4335 39.0731 18.2014 39.1057 18.0025 39.1382C18.0025 39.2684 18.0025 39.301 17.9693 39.3661C17.7455 39.3661 17.6523 39.4027 17.5357 39.4485C17.4969 39.4637 17.4554 39.48 17.4057 39.4963C17.38 39.3955 17.3743 39.3922 17.3268 39.3657C17.3129 39.3579 17.2955 39.3482 17.2731 39.3335C17.1736 39.4637 16.9416 39.5614 16.7758 39.5939V39.6264H16.809C16.8348 39.6773 16.8607 39.6884 16.9024 39.7064L16.9146 39.7116C16.9229 39.7153 16.9319 39.7193 16.9416 39.7241V39.7566H16.8421C16.4469 39.498 16.0953 39.7104 15.7777 39.9023C15.6157 40.0002 15.4626 40.0927 15.317 40.1147V40.0821H15.3502C15.9138 39.2684 17.4057 38.5198 18.334 38.0967C18.3009 38.0804 18.2926 38.0804 18.2843 38.0804C18.276 38.0804 18.2677 38.0804 18.2346 38.0642C17.981 37.7945 17.6196 37.5776 17.2621 37.3631C17.0587 37.2411 16.8566 37.1199 16.6763 36.9901C15.8143 36.3717 14.6871 35.2976 14.0572 34.484C13.9743 34.3863 13.8748 34.2968 13.7754 34.2073C13.6759 34.1178 13.5765 34.0283 13.4936 33.9306C12.7642 32.9868 12.068 31.9778 11.4049 30.9363C11.2723 30.6596 11.1397 30.3911 11.0071 30.1226C10.8744 29.8541 10.7418 29.5856 10.6092 29.3089C10.6092 29.3732 10.6092 29.3952 10.5997 29.412C10.5948 29.4207 10.5874 29.428 10.576 29.4391V29.3414C10.372 29.1411 10.2764 28.8341 10.1834 28.5352C10.1404 28.397 10.098 28.2606 10.0456 28.1372C9.61459 27.1282 9.3162 25.9891 9.05097 24.8174H8.8852C8.82958 24.872 8.74285 24.8757 8.64821 24.8797C8.57362 24.8829 8.49412 24.8863 8.42105 24.915C8.34743 24.9331 8.26359 25.0013 8.18655 25.064C8.12482 25.1142 8.06745 25.1609 8.02321 25.1754L7.62536 25.0777C7.60879 25.0777 7.57564 25.1103 7.54249 25.1428C7.50934 25.1754 7.47617 25.2079 7.45959 25.2079C7.39329 25.2079 7.385 25.1835 7.37671 25.1591C7.36842 25.1347 7.36013 25.1103 7.29383 25.1103C7.22752 25.1266 7.16121 25.151 7.0949 25.1754C7.02861 25.1998 6.96227 25.2242 6.89598 25.2405C6.88253 25.2735 6.86908 25.3119 6.85479 25.3526C6.79868 25.5127 6.72974 25.7093 6.5976 25.7612C6.46498 25.8589 6.26606 25.924 6.03398 25.924V25.8263C6.13344 25.7938 6.19975 25.7287 6.26606 25.6636C6.17175 25.6752 6.06905 25.6991 5.9699 25.7222C5.79021 25.764 5.62213 25.8032 5.53668 25.7612C5.5201 25.745 5.5201 25.7368 5.5201 25.7205C5.5201 25.7043 5.5201 25.6799 5.50352 25.631C5.2415 25.6778 4.94526 25.691 4.59019 25.7068C4.45107 25.7129 4.30287 25.7195 4.14422 25.7287C4.14994 25.7455 4.15468 25.7585 4.15843 25.7688C4.16664 25.7913 4.17011 25.8008 4.16882 25.8096C4.16789 25.8161 4.16442 25.8222 4.15843 25.8327C4.15468 25.8393 4.14994 25.8476 4.14422 25.8589C4.01508 25.7004 3.72877 25.6654 3.46894 25.6336L3.44799 25.631C3.41575 25.8209 3.38352 25.8262 3.19888 25.8562L3.18276 25.8589C3.05732 25.7604 2.89392 25.8109 2.75 25.8555C2.70373 25.8698 2.65948 25.8835 2.61915 25.8914C2.6103 25.848 2.60617 25.8161 2.60299 25.7915C2.59424 25.724 2.59259 25.7113 2.51969 25.6636C2.44246 25.7204 2.28655 25.7442 2.13704 25.767C2.0298 25.7833 1.92585 25.7991 1.85661 25.8263C1.87318 25.8426 1.88976 25.867 1.90633 25.8914C1.92291 25.9158 1.93949 25.9402 1.95607 25.9565H1.82346C1.4456 25.6637 0.996164 25.7807 0.618271 25.8791C0.366183 25.9448 0.145931 26.0021 0 25.924H0.0994613C0.542706 25.5575 1.19935 25.4167 1.86148 25.2747C2.14034 25.2149 2.42018 25.1549 2.68545 25.0777C3.25749 24.9093 3.86242 24.7839 4.46872 24.6582C4.91652 24.5653 5.36533 24.4723 5.80191 24.3617C5.96768 24.3129 6.11687 24.3047 6.26606 24.2966C6.41525 24.2885 6.56444 24.2803 6.73021 24.2315C7.42644 24.0362 8.25528 23.906 9.01782 23.8735C8.91836 23.3202 8.85205 22.7669 8.78574 22.2136C8.71934 21.9365 8.72775 21.6268 8.73605 21.3212C8.74433 21.0165 8.75249 20.716 8.68628 20.456C8.61998 20.1631 8.71944 18.9588 8.78574 18.6984C8.85205 18.3892 8.85205 18.0963 8.85205 17.8074C8.85205 17.5186 8.85205 17.2338 8.91836 16.9409L9.21674 15.2809C9.26232 15.1318 9.32878 14.969 9.39699 14.8019C9.47763 14.6044 9.5607 14.4008 9.61459 14.2069C9.69095 13.982 9.738 13.6995 9.78574 13.4129C9.86236 12.9529 9.94078 12.4822 10.145 12.2215L10.1119 12.5144H10.145V12.4168C10.3295 12.1955 10.4759 11.8002 10.6156 11.4229C10.702 11.1897 10.7858 10.9634 10.8744 10.7894C11.1397 10.2686 11.4712 9.68279 11.8027 9.19458C11.869 9.09693 11.9519 9.00743 12.0348 8.91792C12.1177 8.82842 12.2006 8.73891 12.2669 8.64127C12.386 8.44241 12.4495 8.24776 12.5097 8.06335C12.6169 7.73466 12.7134 7.43853 13.0957 7.20918C13.0379 7.16657 12.9484 7.14256 12.8577 7.1182C12.7406 7.08675 12.6213 7.05473 12.5653 6.98135C12.5984 6.9488 12.5984 6.91626 12.5984 6.81862L12.499 6.81861C12.4186 6.8778 12.3138 6.85327 12.1921 6.82478C12.113 6.80626 12.0268 6.78606 11.9354 6.78606C11.9354 6.84505 11.9422 6.86395 11.9465 6.87606C11.9518 6.89067 11.9535 6.8954 11.9354 6.9488C11.8359 6.75352 11.5707 6.49314 11.3386 6.42804C11.1837 6.38657 11.0348 6.39207 10.8969 6.39716C10.7102 6.40405 10.5438 6.4102 10.4103 6.29785C10.6021 6.29785 10.7769 6.25895 10.9511 6.22019C11.1985 6.16514 11.4446 6.11037 11.7364 6.16766C12.257 6.26988 12.8799 6.29184 13.4604 6.31231C13.6192 6.31791 13.7751 6.32341 13.9246 6.3304C14.1235 6.03747 14.397 5.8015 14.6705 5.56554C14.9441 5.32957 15.2176 5.0936 15.4165 4.80067H15.3833C15.3747 4.81334 15.3678 4.82383 15.362 4.83254C15.3451 4.85818 15.3382 4.86853 15.3286 4.87446C15.322 4.87848 15.3142 4.88047 15.3011 4.88381C15.2894 4.88679 15.2736 4.89083 15.2507 4.89831V4.86576H15.317C15.4278 4.67545 15.608 4.55327 15.7996 4.42334C15.8374 4.39772 15.8756 4.3718 15.9138 4.345C16.0804 4.2305 16.2387 4.08311 16.4012 3.93176C16.562 3.78197 16.727 3.62828 16.9084 3.49877C17.1965 3.30432 17.4944 3.13867 17.7968 2.97054C18.0511 2.82911 18.3086 2.68591 18.5661 2.52235C21.4836 0.797332 26.9872 -0.764946 31.6618 0.406762C31.8573 0.451045 32.0391 0.461856 32.2197 0.472591C32.4373 0.485527 32.653 0.498354 32.8885 0.569499C34.2478 0.960069 35.5408 1.38319 36.7675 1.90395C37.1654 2.06668 37.6295 2.26197 38.0274 2.4898C38.1233 2.54213 38.2193 2.60456 38.3174 2.66843C38.5245 2.80315 38.7414 2.94433 38.9888 3.01056V3.04311H38.8894C38.823 3.07565 38.9225 3.07565 38.9225 3.07565C39.0551 3.20584 39.2292 3.31162 39.4032 3.4174C39.5773 3.52318 39.7513 3.62896 39.884 3.75915C40.2681 3.7393 40.6153 3.58628 40.9631 3.433C41.1856 3.33495 41.4083 3.23678 41.6411 3.1733V3.27094C41.4564 3.38253 41.29 3.51206 41.1235 3.64158C40.9016 3.81428 40.6797 3.98698 40.4144 4.11717C40.5834 4.30382 40.8063 4.4244 41.0315 4.54626C41.1597 4.61565 41.2887 4.68546 41.409 4.76812C41.6577 4.93086 41.8649 5.15055 42.0721 5.37025C42.2793 5.58994 42.4865 5.80964 42.7352 5.97238V5.87474C42.5363 5.74454 42.3042 5.48417 42.1716 5.28888H42.271C42.3373 5.38652 42.4368 5.46789 42.5363 5.54926C42.6357 5.63063 42.7352 5.712 42.8015 5.80964C42.9838 6.05375 43.1745 6.30599 43.3651 6.55823C43.5557 6.81047 43.7464 7.06272 43.9287 7.30682C44.0348 7.43175 44.1374 7.57333 44.2421 7.71771C44.4647 8.02471 44.6965 8.34439 44.9896 8.54363C44.9399 8.46225 44.8985 8.38088 44.857 8.29951C44.8156 8.21814 44.7741 8.13678 44.7244 8.05542H44.7576V8.08796C44.9577 8.224 45.0935 8.44426 45.2081 8.69008C45.803 8.51098 46.4434 8.41344 47.1115 8.41344C48.5371 8.41344 50.3937 8.96675 50.8247 9.38987C51.0236 9.58515 51.0236 9.78043 51.0236 12.5468C51.0236 14.2718 51.0236 14.3371 50.6921 14.3371C50.362 14.3371 50.317 14.0737 50.2469 13.6639C50.2185 13.4976 50.1859 13.3071 50.1285 13.1003C49.2996 10.2036 48.073 9.19458 46.581 9.19458C46.2077 9.19458 45.8456 9.266 45.5081 9.39587C45.5331 9.44976 45.559 9.50222 45.5864 9.5526C46.2826 10.8545 46.8794 12.254 47.3767 13.7187C47.4269 13.8665 47.4628 14.075 47.5007 14.2946C47.5629 14.6553 47.6303 15.0461 47.7746 15.2484C47.7832 15.2357 47.7901 15.2252 47.7959 15.2165C47.8128 15.1909 47.8197 15.1805 47.8293 15.1746C47.8358 15.1706 47.8437 15.1686 47.8568 15.1653C47.8685 15.1623 47.8843 15.1582 47.9072 15.1508C47.9299 15.4182 48.0148 15.701 48.098 15.9781C48.1363 16.1056 48.1742 16.2319 48.2056 16.355C48.2771 16.6183 48.2811 16.872 48.2852 17.1317C48.2887 17.3535 48.2923 17.5797 48.3382 17.8197C48.3671 17.9475 48.3913 18.0769 48.4129 18.2069ZM43.5151 9.49905C42.2083 10.4021 41.3759 11.7855 41.3759 13.3281C41.3759 16.4456 43.658 17.8913 45.909 19.3173C46.4957 19.6889 47.0802 20.0591 47.6216 20.4573C47.7537 21.4547 47.7679 22.6135 47.5756 23.5155C47.5756 23.6294 47.5673 23.7352 47.5591 23.8409C47.5508 23.9467 47.5425 24.0525 47.5425 24.1664C47.4596 24.5407 47.3767 24.9232 47.2938 25.3056C47.211 25.6879 47.128 26.0705 47.0452 26.4447C46.7159 27.4526 46.3866 28.4271 45.9911 29.3424C44.2465 29.1097 42.9308 27.5678 42.1716 23.8409C42.1667 23.8168 42.1621 23.7935 42.1577 23.7712C42.1031 23.4922 42.0758 23.3527 41.7074 23.3527C41.3427 23.3527 41.2433 23.4178 41.2433 25.7287C41.2433 28.7231 41.3759 29.0485 41.84 29.3415C42.515 29.7516 43.813 30.1312 45.6133 30.1541C45.4324 30.5135 45.2371 30.8616 45.0228 31.1967C44.917 31.3746 44.832 31.5458 44.7487 31.7133C44.6493 31.9134 44.5523 32.1084 44.426 32.3033C44.1872 32.6656 43.9058 33.0139 43.6283 33.3574C43.4819 33.5385 43.3367 33.7183 43.1993 33.8981C43.1424 33.9726 43.0909 34.0498 43.0401 34.1259C42.9136 34.3155 42.7919 34.498 42.6026 34.6141C42.5736 34.6426 42.4305 34.6151 42.2508 34.5805C42.0197 34.536 41.7282 34.4799 41.5417 34.5165C41.177 34.6141 40.6797 34.6467 40.2155 34.6467H39.7845C39.7708 34.6467 39.7627 34.6299 39.7533 34.6103C39.74 34.5826 39.7239 34.549 39.685 34.549C39.4861 34.6141 39.1546 34.6792 38.8894 34.6792C38.7776 34.6792 38.6319 34.669 38.4734 34.6578C38.0678 34.6292 37.5788 34.5948 37.3643 34.7118H37.1985L37.2377 34.5359C37.394 33.836 37.5632 33.0786 37.5632 32.2382C37.4645 32.3932 37.4363 32.6059 37.4087 32.8145C37.3899 32.9562 37.3714 33.0961 37.3311 33.2146C37.2307 33.5302 37.118 33.8457 37.008 34.154L37.0078 34.1547L37.0072 34.1563L37.007 34.1568C36.9358 34.3563 36.8657 34.5528 36.8007 34.7443C36.6749 34.7443 36.5588 34.7348 36.4525 34.726C36.3627 34.7186 36.2798 34.7118 36.2039 34.7118C36.223 34.6742 36.2311 34.6692 36.2473 34.6591C36.2591 34.6517 36.2753 34.6417 36.3034 34.6141V34.5165C36.1517 34.576 36.1388 34.6084 36.0869 34.738L36.0762 34.7647L36.0713 34.7769H35.806V34.5165C35.5773 34.6512 35.1908 34.631 34.9077 34.6162C34.7805 34.6096 34.6742 34.604 34.6125 34.6141C34.6457 34.549 34.6788 34.5165 34.712 34.484C34.6232 34.4258 34.5344 34.4066 34.4515 34.3887C34.3487 34.3665 34.2549 34.3462 34.1815 34.2561C34.12 34.2963 34.1092 34.3366 34.0943 34.3922C34.085 34.4265 34.0742 34.4668 34.0489 34.5165C33.8651 34.5165 33.8477 34.4961 33.799 34.4391C33.7862 34.4241 33.7712 34.4066 33.7505 34.3863C33.7082 34.4693 33.666 34.4994 33.6151 34.5356C33.5862 34.5562 33.5545 34.5788 33.5184 34.6141H33.3858C33.4093 34.5911 33.4286 34.568 33.4468 34.5464C33.4798 34.507 33.5088 34.4724 33.5516 34.4514V34.4189C33.5129 34.4189 33.467 34.4171 33.4181 34.4152C33.2574 34.409 33.0642 34.4015 32.988 34.4514C32.9683 34.5093 32.972 34.5214 32.9782 34.5421C32.9825 34.5562 32.988 34.5744 32.988 34.6141C32.8222 34.6141 32.7891 34.6141 32.7228 34.5165C32.7062 34.4839 32.7062 34.427 32.7062 34.3619C32.7062 34.2968 32.7062 34.2236 32.6896 34.1585C32.7213 34.1451 32.7537 34.1311 32.7867 34.1169L32.7891 34.1159C32.9966 34.0263 33.2287 33.9261 33.4853 33.8981C33.5019 33.9062 33.5122 33.9123 33.52 33.9169C33.5433 33.9306 33.5433 33.9306 33.6179 33.9306C33.5848 33.8981 33.5848 33.8981 33.4853 33.8981C33.3975 33.8464 33.3098 33.8768 33.222 33.9072C33.144 33.9342 33.066 33.9613 32.988 33.9306C32.9521 33.9306 32.9065 33.902 32.8564 33.8706C32.814 33.844 32.7684 33.8154 32.7228 33.8005C32.7517 33.7578 32.7491 33.7462 32.7479 33.7412L32.7477 33.7403C32.7476 33.7398 32.7476 33.7393 32.7477 33.7389C32.7481 33.7371 32.751 33.7358 32.7618 33.731C32.7724 33.7263 32.7908 33.7182 32.8222 33.7028V33.6703C32.1923 33.6703 31.0982 33.7679 30.7335 34.0608H30.6341C30.6626 34.0749 30.6789 34.0828 30.6961 34.0874C30.7188 34.0934 30.7432 34.0934 30.7998 34.0934V34.191C30.7853 34.191 30.7715 34.1913 30.7584 34.1916C30.7441 34.192 30.7307 34.1926 30.718 34.1931C30.6097 34.1975 30.5556 34.1997 30.5015 34.0934C30.2562 34.1235 30.2094 34.2649 30.1513 34.4405C30.1465 34.4548 30.1417 34.4693 30.1368 34.484C30.0669 34.484 29.9787 34.4885 29.8836 34.4933C29.6175 34.507 29.2974 34.5233 29.1753 34.4514C29.1439 34.4576 29.1208 34.4614 29.1038 34.4642C29.0733 34.4693 29.0624 34.4711 29.058 34.4773C29.0555 34.4808 29.0551 34.4857 29.0544 34.4933C29.0535 34.5045 29.052 34.5217 29.0427 34.549C28.9866 34.5903 28.9187 34.6142 28.8515 34.6377C28.7597 34.67 28.6691 34.7017 28.6117 34.7769H28.3796C28.4002 34.7567 28.4112 34.7428 28.4195 34.7322C28.4381 34.7087 28.4436 34.7017 28.5122 34.6792C28.4128 34.6141 28.1475 34.6141 27.9818 34.6467C28.0149 34.5816 28.0481 34.549 28.1144 34.5165V34.484C28.066 34.4919 28.0195 34.5037 27.9745 34.5151C27.8349 34.5505 27.7092 34.5824 27.5839 34.484C27.4845 34.6141 26.3904 35.0373 26.1915 35.0698C26.1063 35.0865 26.0912 35.0603 26.0741 35.0309C26.0579 35.003 26.04 34.9722 25.9594 34.9722C25.9262 34.9722 25.1637 35.2325 25.0974 35.2651C25.039 35.2938 24.9356 35.3792 24.824 35.4714C24.6822 35.5887 24.5271 35.7169 24.4343 35.7533C24.3496 35.781 24.3009 35.7615 24.2474 35.74C24.1752 35.7111 24.0942 35.6786 23.9039 35.7533C23.8224 35.62 23.7464 35.4593 23.6692 35.296C23.558 35.0606 23.4441 34.8196 23.3071 34.6467V34.549C23.3402 34.5816 23.3734 34.6141 23.4065 34.6792H23.5392C23.4729 34.5979 23.3817 34.5409 23.2905 34.484C23.1993 34.427 23.1082 34.37 23.0419 34.2887C22.9998 34.2336 22.9755 34.167 22.9515 34.1009C22.9187 34.0108 22.8863 33.9219 22.8098 33.8655C22.8761 33.833 22.9755 33.833 23.1082 33.833C23.0529 33.7571 22.994 33.6848 22.9351 33.6125C22.8172 33.4678 22.6993 33.3231 22.6109 33.1495C22.5445 33.003 22.5114 32.8647 22.4782 32.7264C22.4451 32.5881 22.4119 32.4497 22.3456 32.3033C22.3168 32.2326 22.263 32.1557 22.2086 32.0781C22.1378 31.977 22.066 31.8746 22.0472 31.7825C22.0338 31.7164 22.0586 31.6932 22.0795 31.6738C22.1101 31.6454 22.1322 31.6248 22.0141 31.4896V31.3919C22.1136 31.457 22.1799 31.5221 22.2462 31.6198H22.2793L22.2608 31.5655L22.243 31.5138C22.1235 31.1673 22.0141 30.85 22.0141 30.3179C21.9758 30.3367 21.9707 30.3446 21.9604 30.3605C21.9529 30.3721 21.9427 30.388 21.9146 30.4155C21.6826 30.3504 21.6162 30.09 21.6162 29.8297C21.6162 29.8134 21.6245 29.789 21.6328 29.7646C21.6411 29.7402 21.6494 29.7157 21.6494 29.6995C21.6162 29.6344 21.3179 29.1787 21.2516 29.1136V28.9509C21.351 29.016 21.4173 29.1136 21.4836 29.2113H21.5168C21.4872 29.0082 21.3523 28.3398 21.206 28.1046H21.2184C21.2184 28.1046 21.2184 27.9419 21.1521 28.007V28.0396C21.1701 28.0537 21.1881 28.076 21.206 28.1046H21.1189C21.1079 28.0721 21.1005 28.0359 21.0932 27.9998C21.0784 27.9274 21.0637 27.8551 21.0195 27.8117C21.0195 27.6815 21.0195 27.5839 21.0526 27.5188C21.0806 27.4913 21.1204 27.5044 21.1646 27.519C21.225 27.5389 21.2935 27.5615 21.351 27.4862C21.5257 27.6749 21.6084 27.9449 21.6911 28.2153C21.7654 28.458 21.8398 28.701 21.9809 28.8858V28.9509H22.0141C21.9809 28.6905 21.8815 28.3325 21.7489 28.1697V27.5188C21.7931 27.5622 21.7931 27.5622 21.8078 27.5863C21.8152 27.5984 21.8262 27.6164 21.8483 27.649H21.8815C21.7489 26.8027 21.5168 25.924 21.2847 25.1754C21.2121 24.9331 21.1649 24.6845 21.1182 24.4379C21.0581 24.1214 20.9987 23.8082 20.8869 23.5155C21.2333 23.4081 21.6097 23.4089 21.9942 23.4098C22.3089 23.4106 22.629 23.4113 22.9424 23.3527C23.0763 23.3199 23.2186 23.3119 23.365 23.3037C23.5088 23.2956 23.6566 23.2873 23.8044 23.2551C23.8604 23.2413 23.917 23.227 23.9744 23.2124C24.3247 23.1234 24.7033 23.0272 25.1305 23.0272C25.0642 22.9947 24.9979 22.9947 24.8653 22.9947V22.9622C25.1305 22.8645 25.8268 22.6367 25.9925 22.8645C26.2175 22.8244 26.2658 22.7471 26.3088 22.6784C26.3354 22.6358 26.36 22.5965 26.4235 22.5716H26.8545C26.9357 22.5517 27.0292 22.5378 27.1257 22.5236C27.3446 22.4913 27.5785 22.4567 27.7165 22.3437H27.9486V22.3763C27.9098 22.4144 27.8823 22.4302 27.8596 22.4433C27.8435 22.4526 27.8297 22.4605 27.816 22.4739H27.7165C27.8683 22.5401 28.0286 22.4464 28.2062 22.3426C28.3778 22.2423 28.5656 22.1325 28.7775 22.1485C28.9721 22.1485 29.2919 22.0432 29.5793 21.9487L29.6194 21.9355C28.9991 24.2042 28.3604 26.3828 27.6834 28.365C27.5066 28.8509 27.1414 28.9667 26.839 29.0626C26.574 29.1467 26.3572 29.2155 26.3572 29.5042C26.3572 29.732 26.4898 29.8622 26.7219 29.8622C26.7746 29.8622 26.825 29.8531 26.899 29.8396C27.1043 29.8023 27.4913 29.732 28.6117 29.732C29.0217 29.732 29.4221 29.7697 29.7924 29.8045C30.1107 29.8344 30.4067 29.8622 30.6672 29.8622C31.0319 29.8622 31.2308 29.7971 31.2308 29.5042C31.2308 29.2002 30.8962 29.1543 30.4095 29.0876C30.3231 29.0758 30.2317 29.0632 30.1367 29.0485C29.3079 28.9183 29.1753 28.5603 29.1753 28.1697C29.1753 27.7141 29.3079 27.1282 30.0373 24.1339C30.1213 23.7902 30.3531 22.9126 30.6828 21.6652C30.8021 21.6423 30.9217 21.6205 31.0411 21.5988C31.4498 21.5243 31.8548 21.4506 32.2254 21.3348C32.3972 21.2829 32.5848 21.262 32.7714 21.2413C33.053 21.2099 33.3323 21.1789 33.5516 21.0418H33.6511C33.7174 21.0093 33.5516 21.0093 33.5516 21.0093C33.7715 20.8366 34.1373 20.8071 34.4941 20.7783C34.6753 20.7637 34.8541 20.7493 35.0104 20.7164C35.0462 20.7073 35.0837 20.698 35.1228 20.6885C35.2495 21.1351 35.3694 21.5556 35.4786 21.9388L35.4789 21.9399C35.8045 23.0823 36.0353 23.8923 36.0713 24.0688C36.2553 24.7388 36.4128 25.3061 36.5461 25.7863L36.5482 25.7942C36.9896 27.3843 37.1653 28.0176 37.1653 28.2674C37.1653 28.9509 36.7675 29.0811 36.3033 29.0811C35.7729 29.0811 35.4413 29.2438 35.4413 29.5042C35.4413 29.7646 35.7066 29.8622 36.005 29.8622C36.2953 29.8622 36.6419 29.8346 37.0157 29.8047C37.4529 29.7699 37.9273 29.732 38.392 29.732C38.7775 29.732 39.1122 29.7653 39.4431 29.7982C39.7668 29.8304 40.087 29.8622 40.4476 29.8622C40.9449 29.8622 41.1438 29.7971 41.1438 29.6018C41.1438 29.3404 40.78 29.2469 40.4135 29.1528C40.3238 29.1298 40.2339 29.1067 40.1492 29.0811C39.7845 28.9509 39.4861 28.365 39.3203 27.7792C38.4783 24.8011 37.7888 22.3628 37.1778 20.2037C37.7166 20.0524 38.1911 19.8777 38.4252 19.6749H38.5247V19.6423C38.0382 19.6954 37.5518 19.758 37.0706 19.8251C35.9777 15.9635 35.1291 12.972 34.082 9.29222C33.9163 8.70636 33.85 8.51108 33.5184 8.51108C33.1869 8.51108 33.0874 8.83655 32.8885 9.4875C32.3277 11.5308 31.781 13.6567 31.2334 15.7857L31.2332 15.7868C30.8047 17.4527 30.3758 19.1206 29.9392 20.7522C29.5641 20.8176 29.2344 20.9084 29.0427 21.0744H28.9432C29.121 21.1616 29.5369 21.041 29.789 20.9679L29.7905 20.9675C29.82 20.9589 29.8472 20.951 29.8715 20.9442C29.8767 20.9432 29.8824 20.9423 29.8886 20.9414C29.8491 21.0884 29.8096 21.2351 29.77 21.3814C29.4364 21.4676 29.0821 21.5232 28.7277 21.5789C28.3133 21.644 27.8989 21.7091 27.5176 21.823C27.425 21.849 27.3272 21.8542 27.2304 21.8594C27.0845 21.8672 26.941 21.8749 26.8214 21.9532H26.4235L26.5562 21.823V21.7253C26.4312 21.799 26.3251 21.9095 26.2236 22.0153C26.1905 22.0498 26.1578 22.0839 26.1252 22.1159H25.9594C25.976 22.0834 25.976 22.0752 25.976 22.0671C25.976 22.059 25.976 22.0508 25.9925 22.0183V21.7904C25.9655 21.8037 25.9385 21.8278 25.9092 21.8539C25.8667 21.8918 25.8194 21.9339 25.7605 21.9532C25.6153 21.9959 25.4574 21.995 25.3063 21.9941C25.1123 21.993 24.9295 21.9919 24.799 22.0834C24.7548 22.0725 24.7327 22.0725 24.7216 22.0725C24.7189 22.0725 24.7168 22.0725 24.7152 22.0723C24.7137 22.0722 24.7127 22.0718 24.712 22.0712C24.7106 22.0698 24.7106 22.0671 24.7106 22.0617C24.7106 22.0508 24.7106 22.0291 24.6995 21.9857C24.6664 22.002 24.6581 22.002 24.6498 22.002C24.6415 22.002 24.6332 22.002 24.6001 22.0183H24.4675C24.491 21.9952 24.5103 21.9722 24.5284 21.9505C24.5614 21.9111 24.5904 21.8766 24.6332 21.8555V21.7904C24.4012 21.8555 24.1359 21.9206 23.937 21.7579L23.9172 21.7617L23.9009 21.7647C23.8572 21.7728 23.8371 21.7766 23.829 21.7883C23.8221 21.7984 23.8241 21.8145 23.828 21.8443C23.8318 21.8745 23.8375 21.9189 23.8375 21.9857C23.7119 22.0047 23.6201 22.0098 23.5448 22.0141C23.3619 22.0243 23.2767 22.0291 23.0419 22.2136H23.0087C23.0243 22.1676 23.0326 22.1433 23.0473 22.1236C23.0639 22.1015 23.0887 22.0853 23.1413 22.0508V21.9532C23.0905 21.9657 23.0055 21.9734 22.9125 21.9818C22.7631 21.9953 22.5932 22.0107 22.5114 22.0508C22.423 22.0942 22.423 22.1231 22.423 22.1762C22.423 22.2027 22.423 22.2353 22.4119 22.2787C22.2793 22.2787 22.1799 22.2787 22.1136 22.2461C22.0804 21.6928 22.5114 21.5952 22.9424 21.5626C22.8582 21.513 22.7825 21.539 22.698 21.5681C22.6162 21.5962 22.5261 21.6272 22.4119 21.5952C22.3677 21.5952 22.2941 21.5662 22.2204 21.5373C22.1835 21.5228 22.1467 21.5084 22.1136 21.4975C22.1425 21.4549 22.1398 21.4433 22.1387 21.4383L22.1385 21.4373C22.1384 21.4368 22.1384 21.4364 22.1385 21.4359C22.1386 21.4352 22.1392 21.4345 22.1406 21.4337C22.1426 21.4325 22.1462 21.4309 22.1526 21.4281C22.1632 21.4234 22.1816 21.4153 22.213 21.3999V21.3673C21.7157 21.3673 20.6548 21.4975 20.3896 21.7253H20.3564C20.3564 21.6169 20.3382 21.4727 20.3183 21.3153C20.2724 20.9528 20.2177 20.5202 20.3564 20.2933C20.3564 20.2252 20.36 20.1677 20.363 20.1194C20.3729 19.9602 20.3765 19.9027 20.2238 19.9027C20.2238 19.63 20.1916 19.4205 20.1589 19.2081C20.1253 18.9895 20.0912 18.7677 20.0912 18.4706C20.1575 18.5682 20.1906 18.6659 20.1906 18.8286C20.2404 18.7635 20.2404 18.6496 20.2404 18.5357C20.2404 18.4218 20.2404 18.3079 20.2901 18.2428V17.8197H20.3232C20.3398 17.8847 20.3564 17.9254 20.373 17.9661C20.3896 18.0068 20.4061 18.0475 20.4227 18.1126C20.5222 17.9498 20.489 16.5828 20.4227 16.4852V14.4347C20.4227 14.3545 20.4167 14.2762 20.411 14.2033C20.3938 13.9807 20.3805 13.8083 20.5553 13.7838C20.489 13.263 20.5222 12.6446 20.6548 12.1564C20.6931 11.9869 20.6871 11.7739 20.6817 11.5803C20.6777 11.4393 20.674 11.3085 20.6879 11.2125V10.0408C20.7294 9.89833 20.8098 9.80676 20.8804 9.72631C20.9227 9.67812 20.9615 9.63391 20.9863 9.58515C20.9863 9.52007 20.9946 9.44685 21.0029 9.37364C21.0112 9.30041 21.0195 9.22712 21.0195 9.16203C21.0432 9.06874 21.0755 8.97127 21.1087 8.87112C21.168 8.69175 21.2303 8.50377 21.2516 8.31579C21.3842 8.31579 21.4836 8.34834 21.5499 8.41344C21.6269 8.46384 21.6245 8.47522 21.604 8.56844C21.5981 8.59561 21.5906 8.62974 21.5831 8.67382H21.6162C21.6245 8.65754 21.6328 8.6433 21.6411 8.62906C21.666 8.58635 21.6908 8.54363 21.7157 8.44598C21.8483 8.51108 21.9478 8.57617 22.0141 8.67382C22.0638 8.65754 22.0887 8.65754 22.1053 8.65754C22.1218 8.65754 22.1301 8.65754 22.1467 8.64127C22.1467 8.60872 22.1467 8.60872 22.0472 8.54363C22.2961 8.36039 22.5709 8.48281 22.7987 8.58426C22.935 8.64498 23.0544 8.69819 23.1413 8.67382C23.1745 8.65754 23.1828 8.65754 23.191 8.65754C23.1993 8.65754 23.2076 8.65754 23.2408 8.64127C23.2141 8.63255 23.1899 8.62616 23.1673 8.62024C23.1058 8.60405 23.0572 8.59128 23.0087 8.54363H22.9755V8.51108C23.213 8.52773 23.4244 8.46772 23.6142 8.41385C23.7955 8.3624 23.957 8.31655 24.1028 8.34834C24.6664 8.44598 25.661 8.38089 26.2909 8.2507C26.5903 8.18155 26.9364 8.20422 27.2697 8.22605C27.5639 8.24532 27.8481 8.26393 28.0812 8.21815C28.3796 8.21815 28.6697 8.21001 28.9598 8.20188C29.2499 8.19374 29.54 8.1856 29.8384 8.1856C30.1368 8.08796 30.8993 7.92522 31.3303 7.92522C31.3017 7.91121 31.2855 7.90323 31.2683 7.89868C31.2455 7.89268 31.2212 7.89268 31.1645 7.89268V7.86013L31.2018 7.84434C31.4463 7.74055 31.904 7.54621 32.0928 7.76249C32.2633 7.72529 32.3039 7.64558 32.3445 7.56588C32.375 7.50609 32.4054 7.44631 32.4907 7.40447H32.8222C33.0211 7.37192 33.3858 7.27428 33.5184 7.14409H33.6179C33.5874 7.26374 33.557 7.27342 33.475 7.29947L33.4521 7.30682V7.33937C33.6179 7.30682 33.7174 7.20918 33.8168 7.11154C33.9035 7.15407 33.9477 7.21048 33.9956 7.27172C34.0211 7.30421 34.0476 7.33807 34.0821 7.37192V7.40447H34.1152H34.1484C34.1318 7.37192 34.1318 7.36378 34.1318 7.35564C34.1318 7.34751 34.1318 7.33937 34.1152 7.30682V7.40447C34.0986 7.3231 34.0655 7.26614 34.0323 7.20918C33.9992 7.15222 33.966 7.09526 33.9494 7.0139C34.5395 6.73499 35.1728 6.4985 35.7923 6.26716C36.1126 6.14755 36.4293 6.0293 36.7344 5.90728C36.8945 5.8347 37.073 5.78011 37.2528 5.72511C37.5568 5.63214 37.8645 5.53803 38.0937 5.35398C38.1094 5.33857 38.1195 5.33045 38.1253 5.32575C38.1301 5.32194 38.1321 5.32037 38.1319 5.31897C38.1319 5.31848 38.1316 5.31801 38.1311 5.31747C38.1305 5.31693 38.1298 5.31632 38.1288 5.31554C38.1226 5.31058 38.1081 5.29897 38.0937 5.25633C38.1256 5.2438 38.1599 5.23128 38.1956 5.21828C38.3451 5.16378 38.517 5.10107 38.6241 4.99595C38.7613 5.01519 39.0026 5.20489 39.2386 5.39046C39.4021 5.51893 39.563 5.64543 39.685 5.712C40.6465 6.3304 41.4422 7.07899 42.2047 7.86013C42.3373 7.9903 42.4593 8.1413 42.5813 8.2923C42.7643 8.51883 42.9474 8.74542 43.1662 8.90165C43.1376 8.91567 43.1214 8.92365 43.1042 8.92819C43.0814 8.9342 43.057 8.9342 43.0004 8.9342C43.1766 9.11317 43.3484 9.302 43.5151 9.49905ZM47.2716 29.2876C49.0636 28.8843 50.2611 27.116 50.2611 24.9475C50.2611 23.3928 49.6284 22.2785 48.7006 21.3633C48.681 21.6803 48.6477 21.9635 48.6034 22.1485H48.5371V22.6041C48.4546 22.9606 48.4296 23.3493 48.4048 23.7342C48.3798 24.1224 48.3551 24.5067 48.2719 24.8499V25.631C48.2221 25.7775 48.1476 25.932 48.073 26.0866C47.9984 26.2411 47.9237 26.396 47.874 26.5424C47.8248 26.7034 47.8162 26.8645 47.808 27.0176C47.7996 27.174 47.7916 27.3222 47.7414 27.4537C47.7248 27.4537 47.7082 27.4456 47.6917 27.4374C47.6751 27.4293 47.6585 27.4212 47.6419 27.4212V27.4537C47.454 27.7172 47.3531 28.1514 47.2687 28.5145L47.2685 28.515C47.2487 28.6001 47.2298 28.6814 47.2109 28.7556C47.1763 28.9426 47.2231 29.1118 47.2662 29.2679C47.268 29.2745 47.2698 29.281 47.2716 29.2876ZM44.1757 10.3591C44.6415 11.0254 45.0513 11.7484 45.3875 12.4819C45.5 12.7304 45.6603 12.9673 45.8227 13.2073C46.0431 13.533 46.2676 13.8647 46.3821 14.2394C46.433 14.4142 46.4058 14.5124 46.3754 14.6221C46.3662 14.6554 46.3567 14.6898 46.3489 14.7276C46.6757 15.1964 46.869 16.1328 47.0301 16.9129C47.069 17.1011 47.106 17.2806 47.1426 17.4418C46.9904 17.3495 46.8393 17.2566 46.6902 17.1627C46.6516 16.9322 46.567 16.6993 46.4484 16.5828C46.4684 16.7398 46.5004 16.9204 46.5518 17.0747C44.849 15.9843 43.4314 14.7243 43.4314 12.3842C43.4314 11.6244 43.7145 10.915 44.1757 10.3591ZM30.7667 1.83885C30.8426 1.82228 30.925 1.79728 31.0122 1.77082C31.2676 1.69333 31.5642 1.60332 31.8608 1.67611C32.7559 1.90395 34.5462 2.35961 35.1098 2.88037C35.1324 2.86562 35.1464 2.85756 35.1554 2.85239C35.1646 2.84706 35.1685 2.84482 35.1709 2.8415C35.1726 2.83908 35.1735 2.83609 35.175 2.83091C35.1784 2.81971 35.1848 2.79826 35.2093 2.75018C35.7066 2.88037 37.0327 3.40113 37.3643 3.69406C37.298 3.67778 37.2234 3.65337 37.1488 3.62896C37.0742 3.60455 36.9996 3.58014 36.9333 3.56387C37.1265 3.75358 37.3663 3.88846 37.6033 4.02177C37.8136 4.14005 38.0217 4.25709 38.1931 4.4101C38.1102 4.39383 38.0274 4.36942 37.9445 4.34501C37.8616 4.3206 37.7787 4.29618 37.6958 4.27991C37.7403 4.32362 37.7915 4.35429 37.8404 4.38358C37.9007 4.41974 37.9576 4.45381 37.9942 4.50774C38.0274 4.52402 38.0356 4.52402 38.0439 4.52402C38.0522 4.52402 38.0605 4.52402 38.0937 4.54029C37.7485 4.67892 37.4107 4.86857 37.0804 5.05406C36.7127 5.26051 36.3542 5.4618 36.005 5.58181C35.9414 5.60261 35.8778 5.58353 35.8229 5.56705C35.7919 5.55774 35.7637 5.54926 35.7397 5.54926C35.6315 5.54926 35.4666 5.67423 35.3283 5.77905C35.2549 5.83472 35.189 5.8847 35.143 5.90728C34.6457 6.07002 34.1484 6.23276 33.6511 6.36295C33.2821 6.26233 33.0779 5.67649 32.8895 5.1362C32.7733 4.80262 32.663 4.4864 32.5238 4.31246V4.21481C32.4907 4.27991 32.4907 4.31246 32.4907 4.44265C32.3215 4.32186 32.1951 4.15205 32.0685 3.98194C31.9222 3.78535 31.7757 3.58837 31.5624 3.46622C31.5863 3.39585 31.6102 3.37619 31.6465 3.34633C31.6605 3.33476 31.6765 3.32166 31.695 3.30349H31.7281C31.6712 3.24762 31.596 3.19775 31.5182 3.14616C31.4147 3.07751 31.3065 3.00582 31.2308 2.91292C31.2003 2.87296 31.1635 2.80849 31.1224 2.73642C31.0296 2.57366 30.9147 2.37218 30.7998 2.32706H30.4351C30.402 2.29451 29.9047 1.74121 29.8715 1.67611C29.9473 1.68674 30.0302 1.71821 30.1202 1.75237C30.3056 1.82278 30.5211 1.9046 30.7667 1.83885ZM23.9039 2.81527C23.995 2.75562 24.0722 2.66862 24.1515 2.57934C24.2452 2.47379 24.3417 2.36505 24.4675 2.29451C24.767 2.15728 25.1147 2.12633 25.467 2.09496C25.6996 2.07425 25.9342 2.05336 26.1583 2.00159C26.5562 1.90395 27.6171 1.64357 28.1144 1.77376C28.5785 1.90395 29.0758 2.16432 29.4737 2.4247C30.3357 2.97801 31.3966 3.92189 31.9934 4.73557C32.0957 4.87259 32.2007 5.03013 32.3097 5.19377C32.5892 5.61322 32.8955 6.07286 33.2532 6.3304C33.1739 6.46668 32.9759 6.49815 32.78 6.5293C32.6483 6.55023 32.5176 6.57101 32.4244 6.62333H32.1923C32.2254 6.55823 32.2254 6.55823 32.2918 6.52568V6.39549L32.2586 6.42804C32.1699 6.48608 32.134 6.59585 32.1037 6.68817L32.0986 6.70361L32.0928 6.72097C32.063 6.72097 32.0332 6.72754 32.0004 6.73478C31.9602 6.74365 31.9155 6.75352 31.8608 6.75352V6.49314C31.811 6.50941 31.7613 6.54196 31.7116 6.57451C31.6618 6.60705 31.6121 6.6396 31.5624 6.65587C31.4515 6.68309 31.3464 6.68186 31.2495 6.68073C31.1147 6.67915 30.9958 6.67776 30.8993 6.75352C30.8551 6.74267 30.833 6.74267 30.8219 6.74267C30.8164 6.74267 30.8136 6.74267 30.8123 6.74131C30.8109 6.73996 30.8109 6.73724 30.8109 6.73182C30.8109 6.72097 30.8109 6.69927 30.7998 6.65587C30.761 6.65587 30.7222 6.66704 30.69 6.67629C30.6672 6.68284 30.6478 6.68842 30.6341 6.68842C30.6413 6.67415 30.647 6.66145 30.6521 6.64996C30.6704 6.60906 30.6818 6.58364 30.7335 6.55823V6.52568L30.7012 6.53027C30.4859 6.56087 30.3294 6.58311 30.2031 6.42804C30.1895 6.4307 30.1775 6.43292 30.1669 6.43489C30.1233 6.44298 30.1031 6.44673 30.0951 6.45847C30.0881 6.46858 30.0902 6.48461 30.094 6.51443C30.0979 6.54467 30.1036 6.58911 30.1036 6.65587L30.0705 6.68842C29.908 6.68842 29.8782 6.66672 29.8186 6.62333C29.8052 6.61357 29.7903 6.60272 29.7721 6.59078C29.7389 6.6396 29.714 6.67215 29.6892 6.7047C29.6643 6.73724 29.6395 6.76979 29.6063 6.81861H29.4405C29.464 6.79556 29.4833 6.7725 29.5014 6.7509C29.5345 6.7115 29.5635 6.67689 29.6063 6.65587V6.62333C29.4405 6.62333 29.1421 6.62333 29.0758 6.65587C28.9874 6.69927 28.9874 6.7282 28.9874 6.78124C28.9874 6.80776 28.9874 6.84031 28.9764 6.88371C28.8769 6.88371 28.8438 6.88371 28.8106 6.85116H28.7111C28.7111 6.7867 28.7163 6.73756 28.7206 6.69767C28.727 6.63686 28.7312 6.59754 28.7111 6.55823C28.7775 6.3304 29.2416 6.20021 29.5068 6.16766C29.4039 6.1099 29.2944 6.12902 29.1841 6.14828C29.0459 6.17242 28.9066 6.19676 28.7775 6.07002C28.7642 6.04398 28.7615 6.03877 28.7631 6.03565C28.7633 6.03528 28.7636 6.03494 28.7639 6.0346C28.7642 6.03422 28.7646 6.03383 28.765 6.0334C28.7692 6.02934 28.7775 6.0212 28.7775 5.97238C28.3052 5.97238 27.9298 6.06748 27.5593 6.16136C27.2795 6.23223 27.0025 6.3024 26.6888 6.3304C26.7551 6.36295 26.8214 6.39549 26.9208 6.42804C26.7551 6.55823 26.5893 6.42804 26.4898 6.3304C26.4235 6.46059 26.2909 6.62333 26.1915 6.72097C26.0257 6.78606 25.3626 6.68842 25.23 6.59078C25.1997 6.61062 25.1817 6.61837 25.1704 6.62323C25.1631 6.62635 25.1586 6.62828 25.1554 6.63146C25.1501 6.63667 25.1482 6.64521 25.1432 6.66778C25.1403 6.68046 25.1365 6.69757 25.1305 6.72097C24.9648 6.72097 24.8322 6.72097 24.7327 6.81861H24.4675C24.5006 6.80234 24.5089 6.80234 24.5172 6.80234C24.5255 6.80234 24.5338 6.80234 24.5669 6.78606H24.6664C24.5669 6.72097 24.3349 6.65587 24.1691 6.65587C24.2022 6.59078 24.2354 6.55823 24.3017 6.52568C24.0488 6.37673 23.3137 6.49288 22.729 6.58526C22.5472 6.614 22.3799 6.64043 22.2462 6.65587V6.52568C22.213 6.54196 22.1716 6.55823 22.1301 6.57451C22.0887 6.59078 22.0472 6.60705 22.0141 6.62333H21.6162L21.6418 6.55638C22.2274 5.02293 22.7274 3.71356 23.9039 2.81527ZM16.2785 5.32141C16.289 5.30071 16.2929 5.29318 16.2943 5.29359C16.2951 5.29383 16.2951 5.29665 16.2951 5.30109C16.2951 5.31329 16.2951 5.3377 16.3116 5.35398H16.3448C16.4443 5.22379 16.5769 5.0936 16.7095 4.96341H16.7426C16.6763 5.0936 16.5769 5.22379 16.4774 5.32143V5.41907C16.649 5.3101 16.8113 5.18303 16.9757 5.05439C17.3512 4.76042 17.7373 4.4582 18.2677 4.345C18.2388 4.30236 18.2414 4.29076 18.2426 4.28579C18.2428 4.28481 18.2429 4.28409 18.2428 4.28343C18.2424 4.28162 18.2395 4.28036 18.2287 4.27559C18.218 4.27088 18.1996 4.26277 18.1683 4.24736C18.2346 3.95444 18.7319 3.66151 18.9971 3.56387H19.2623C19.3618 3.46622 19.4613 3.33603 19.5607 3.20584C19.6585 3.13728 19.768 3.08605 19.877 3.03511C20.0266 2.96515 20.175 2.89573 20.2901 2.78273H20.3232C20.2735 2.8641 20.1989 2.92105 20.1243 2.97801C20.0497 3.03497 19.9751 3.09193 19.9254 3.1733H19.8923V3.20584C20.0373 3.15243 20.1725 3.0698 20.3032 2.98992C20.4114 2.92377 20.5165 2.8595 20.6216 2.81527C20.7931 2.73876 20.9792 2.67663 21.1628 2.61537C21.3696 2.54633 21.5732 2.47838 21.7489 2.39216V2.35961H21.782C21.7489 2.32706 21.7489 2.32706 21.6494 2.32706V2.26197C21.9146 2.13178 22.2793 1.96904 22.644 1.96904C22.6336 2.04059 22.6199 2.08967 22.6091 2.12838C22.5856 2.21292 22.5758 2.24798 22.644 2.35961C22.2462 2.45725 20.9532 3.07565 20.6879 3.30349H20.6548V3.33603C20.8641 3.27999 21.0516 3.17033 21.236 3.06246C21.3729 2.98238 21.5082 2.90329 21.6494 2.84782C21.7373 2.81906 21.8187 2.81571 21.8965 2.81252C21.9948 2.80848 22.0873 2.80468 22.1799 2.75018H22.3125C22.3125 2.76645 22.3042 2.79085 22.2959 2.81525C22.2876 2.83965 22.2793 2.8641 22.2793 2.88037C22.2296 2.89664 22.2379 2.90478 22.2503 2.91698C22.2627 2.92919 22.2793 2.94546 22.2462 2.97801C22.1186 3.458 21.7594 3.99151 21.4218 4.49275C21.2329 4.77324 21.0509 5.04363 20.92 5.28888C20.7542 5.61436 20.5885 6.00492 20.489 6.36295C20.478 6.40634 20.4706 6.45336 20.4632 6.50037C20.4485 6.5944 20.4338 6.68842 20.3896 6.75352C20.3777 6.76513 20.3743 6.76845 20.3704 6.76941C20.3688 6.76979 20.3671 6.76979 20.3647 6.76979C20.3564 6.76979 20.3398 6.76979 20.2901 6.78606C20.2569 6.72097 20.2569 6.72097 20.2569 6.62333C20.0912 6.62333 18.9308 6.52568 18.9308 6.52568C18.9308 6.52568 18.8645 6.65587 18.8313 6.65587C18.4998 6.78606 17.8036 6.78606 17.3726 6.68842C16.9416 6.59078 15.317 6.36295 15.085 6.42804H14.9192C15.0384 6.35003 15.2317 6.17332 15.4398 5.98301C15.7527 5.69692 16.0993 5.38005 16.2785 5.32141ZM9.44882 17.364C9.51797 17.0653 9.5525 16.7836 9.58611 16.5095C9.63308 16.1264 9.67824 15.758 9.81351 15.3786C10.2777 13.9465 10.7418 12.6121 11.3386 11.3102C11.6038 10.7569 11.9354 10.2035 12.2669 9.68279C12.3276 9.57853 12.4091 9.4879 12.4924 9.39531C12.5911 9.28557 12.6923 9.17307 12.7642 9.03184H12.7973C12.7901 9.04609 12.7844 9.05879 12.7793 9.07026C12.761 9.11117 12.7497 9.13662 12.6979 9.16203V9.38986H12.731C12.7829 9.27101 12.7987 9.16987 12.8161 9.05873C12.832 8.95681 12.8492 8.84648 12.8968 8.70636C13.0743 8.48231 13.2324 8.25826 13.4008 8.01964L13.4017 8.01842L13.402 8.0179C13.4534 7.94511 13.5057 7.87096 13.5599 7.79504C13.6051 7.83937 13.6195 7.92901 13.6345 8.02281C13.6416 8.06672 13.6488 8.11155 13.6593 8.15306C13.7582 8.03664 13.8452 7.87397 13.9275 7.72019C13.9832 7.61599 14.0368 7.51588 14.0903 7.43701C14.1089 7.44157 14.1281 7.44613 14.1477 7.45078C14.2681 7.47931 14.4027 7.51122 14.4882 7.5672C14.5497 7.60743 14.5605 7.6228 14.5754 7.64404C14.5847 7.65716 14.5955 7.67253 14.6208 7.69739C14.6429 7.69739 14.654 7.70101 14.6613 7.70342C14.6761 7.70824 14.6761 7.70824 14.7203 7.66485C14.775 7.66485 14.7996 7.67471 14.8218 7.68358C14.8398 7.69082 14.8562 7.69739 14.886 7.69739V7.86013C15.085 7.86013 15.3502 7.86013 15.4828 7.89268C15.4552 7.91977 15.4219 7.93559 15.3876 7.95186C15.3394 7.97469 15.2894 7.99841 15.2507 8.05542H15.2176V8.12051H15.748C15.7704 8.09127 15.7961 8.05382 15.8243 8.01259C15.9219 7.87024 16.0505 7.68276 16.179 7.6323C16.3677 7.56285 16.6067 7.65806 16.7886 7.73054C16.8624 7.75996 16.9269 7.78564 16.9747 7.79504C17.0596 7.80892 17.1807 7.78134 17.3174 7.75019C17.5011 7.70834 17.7129 7.66007 17.903 7.69739C17.9693 7.71367 18.0771 7.73808 18.1849 7.76249C18.2926 7.7869 18.4003 7.81131 18.4666 7.82758C18.5827 7.82758 18.6987 7.81945 18.8148 7.81131C18.9308 7.80317 19.0468 7.79504 19.1629 7.79504C19.2616 7.81926 19.3465 7.8525 19.433 7.88637C19.579 7.94351 19.7296 8.00243 19.9586 8.02287C19.9254 8.2507 19.8591 8.57617 19.7265 8.73891C19.755 8.75293 19.7713 8.76091 19.7885 8.76545C19.8112 8.77146 19.8356 8.77146 19.8923 8.77146C19.6579 9.32734 19.5156 9.92839 19.3705 10.5413C19.2692 10.9691 19.1665 11.4029 19.0303 11.8309C18.994 11.9615 18.9225 12.131 18.8478 12.3078C18.7177 12.616 18.5782 12.9467 18.5993 13.1328V13.3932C18.6478 13.3455 18.6608 13.2804 18.6773 13.1979C18.6833 13.1677 18.6898 13.1352 18.6987 13.1003C18.9308 13.4257 18.5993 15.0206 18.4335 15.2484C18.4335 15.3786 18.4335 15.4762 18.4666 15.5413V15.5739C18.5329 15.4762 18.5661 15.2484 18.5661 15.0531C18.6053 15.2199 18.593 15.4676 18.5799 15.7304C18.5599 16.1344 18.538 16.5741 18.6987 16.8107V17.8847C18.6869 17.8732 18.6835 17.8698 18.6825 17.8659C18.6821 17.8643 18.6821 17.8627 18.6821 17.8603C18.6821 17.8522 18.6821 17.8359 18.6656 17.7871H18.6324C18.6856 18.2049 18.7068 18.6542 18.7281 19.1054C18.7598 19.779 18.7918 20.4572 18.9308 21.0418C18.9563 21.1795 18.9573 21.3315 18.9583 21.4814C18.9598 21.7213 18.9614 21.9556 19.0634 22.1159C19.0459 22.1673 19.0377 22.1917 19.0241 22.2127C19.0119 22.2316 18.9953 22.2478 18.964 22.2786C18.8822 22.2786 18.7754 22.286 18.6595 22.294C18.3526 22.3151 17.9811 22.3406 17.8367 22.2461C17.7704 22.2461 17.24 22.4414 17.1405 22.539H16.8753V22.5065C16.9084 22.4902 16.9167 22.4902 16.925 22.4902C16.9333 22.4902 16.9416 22.4902 16.9747 22.4739H17.0742C16.9416 22.3763 16.5769 22.4088 16.4774 22.4414C16.5009 22.4184 16.5201 22.3954 16.5382 22.3738C16.5713 22.3344 16.6004 22.2997 16.6432 22.2787V22.2461C16.2024 22.2794 15.7963 22.3893 15.3805 22.5018C14.9832 22.6093 14.5771 22.7192 14.1235 22.7669V22.6367C13.8219 22.7995 13.4791 22.8681 13.1482 22.9343C12.7517 23.0136 12.3722 23.0895 12.1011 23.3202C12.0698 23.3202 12.0418 23.321 12.0167 23.3217C11.8823 23.3256 11.8307 23.3271 11.8027 23.19C11.7472 23.1984 11.68 23.2079 11.6047 23.2185C11.0959 23.2903 10.2146 23.4146 10.0124 23.6131C9.80469 23.4998 9.78979 22.8343 9.77754 22.2867C9.77219 22.0477 9.76734 21.8312 9.7472 21.6928C9.57756 20.5686 9.70631 19.4312 9.82981 18.34C9.8994 17.7252 9.96733 17.1251 9.97928 16.5503C9.8566 16.731 9.8348 16.9983 9.81278 17.2682C9.79909 17.436 9.78532 17.6049 9.7472 17.7546C9.68881 17.9647 9.6647 18.2198 9.64133 18.467C9.62489 18.6409 9.60881 18.811 9.58143 18.9588V19.5121C9.48197 20.0003 9.41566 20.6187 9.41566 21.1395C9.28543 20.9605 9.29844 20.6007 9.31 20.281C9.31316 20.1938 9.3162 20.1096 9.3162 20.0329C9.28305 19.089 9.2499 18.1451 9.44882 17.364ZM9.84666 23.5155C9.83009 23.5643 9.83009 23.5887 9.83009 23.605C9.83009 23.6212 9.83009 23.6294 9.81351 23.6456V23.6782H9.78036L9.6809 22.7018C9.7472 22.7994 9.75549 22.954 9.76378 23.1086C9.77207 23.2632 9.78036 23.4178 9.84666 23.5155ZM9.48197 23.7433C9.47208 23.5781 9.42968 23.323 9.38213 23.0369C9.27038 22.3646 9.13015 21.5208 9.3162 21.2697C9.32803 21.2581 9.33142 21.2547 9.3354 21.2538C9.33601 21.2536 9.33664 21.2536 9.33731 21.2535C9.3384 21.2534 9.3396 21.2534 9.34107 21.2534C9.34936 21.2534 9.36593 21.2534 9.41566 21.2371C9.52115 21.533 9.52389 21.9499 9.52663 22.3656C9.52992 22.8644 9.5332 23.3616 9.71405 23.6456C9.71405 23.6619 9.70576 23.6863 9.69747 23.7107C9.68918 23.7352 9.6809 23.7596 9.6809 23.7758H9.48197V23.7433ZM20.3564 38.7802C20.3181 38.799 20.313 38.8069 20.3027 38.8228C20.2952 38.8345 20.285 38.8503 20.2569 38.8779C20.2178 38.8586 20.1931 38.8508 20.1777 38.8459C20.1656 38.842 20.1593 38.84 20.1562 38.8357C20.1529 38.8311 20.1535 38.8237 20.1548 38.8084C20.1559 38.7952 20.1575 38.7761 20.1575 38.7477H20.3232V38.7802H20.3564ZM23.0419 36.0137C22.6721 36.4901 22.0608 36.666 21.4212 36.8502C21.1432 36.9302 20.8597 37.0118 20.5885 37.1203C20.1575 37.283 19.6933 37.4783 19.2623 37.6736C19.2247 37.6921 19.1792 37.7236 19.1286 37.7585C19.0008 37.8469 18.8412 37.9573 18.6987 37.934C18.556 37.894 18.4133 37.7555 18.2784 37.6245C18.1938 37.5425 18.1123 37.4634 18.0356 37.4132C17.7294 37.201 17.4623 36.9696 17.1971 36.7398C16.9743 36.5467 16.7528 36.3548 16.5106 36.1764C14.6871 34.842 13.2947 33.0193 12.1011 31.0665C12.0335 30.9669 12.009 30.8505 11.9836 30.73C11.9592 30.6142 11.9341 30.4947 11.869 30.383C11.7032 29.9963 11.4985 29.597 11.2955 29.2008C11.1737 28.9633 11.0526 28.727 10.9407 28.4952C10.6092 27.7141 10.2777 26.9329 10.0124 26.1193C9.96238 25.9718 9.93121 25.8012 9.89933 25.6267C9.84675 25.3388 9.79222 25.0402 9.64774 24.8174C9.66431 24.8011 9.68917 24.7848 9.71402 24.7686C9.73889 24.7523 9.76378 24.736 9.78036 24.7197C10.0083 24.7197 10.0325 24.7812 10.0685 24.8726C10.0848 24.9141 10.1036 24.9618 10.145 25.0126V25.0452H10.1782C10.1693 25.019 10.1628 24.9952 10.1568 24.9731C10.1403 24.9127 10.1273 24.865 10.0787 24.8174C10.1047 24.6897 10.1104 24.6822 10.1436 24.6378C10.1527 24.6256 10.1639 24.6106 10.1782 24.5895C10.3108 24.6872 10.5429 25.5334 10.5429 25.7938H10.6092C10.6755 25.4358 10.576 24.8499 10.3771 24.5895V24.557C10.471 24.5455 10.6105 24.5584 10.7649 24.5727C11.0467 24.5989 11.3779 24.6296 11.5707 24.5244C11.582 24.5133 11.5894 24.506 11.5943 24.4973C11.6038 24.4805 11.6038 24.4586 11.6038 24.3942C12.5653 24.3942 13.4604 24.4593 14.1898 24.6546C14.2016 24.643 14.205 24.6397 14.209 24.6387C14.2106 24.6383 14.2123 24.6383 14.2147 24.6383C14.223 24.6383 14.2395 24.6383 14.2893 24.6221L14.2806 24.6092L14.2731 24.5979C14.2544 24.57 14.2461 24.5576 14.2345 24.5506C14.2252 24.545 14.2138 24.5429 14.1933 24.5392C14.177 24.5362 14.1548 24.5321 14.1235 24.5244V24.4919C14.1592 24.4802 14.1981 24.4654 14.2399 24.4495C14.4306 24.3768 14.6803 24.2816 14.9523 24.3617C14.9916 24.3713 15.0367 24.3895 15.0841 24.4087C15.1969 24.4542 15.3231 24.5052 15.4165 24.4593C15.4496 24.4431 15.4579 24.4431 15.4662 24.4431C15.4745 24.4431 15.4828 24.4431 15.516 24.4268C15.4165 24.3942 15.3502 24.3942 15.2176 24.3942C15.2919 24.3395 15.3766 24.3359 15.4718 24.3319C15.5464 24.3287 15.6274 24.3252 15.7149 24.2966C15.8309 24.264 15.9387 24.2071 16.0464 24.1501C16.1542 24.0932 16.2619 24.0362 16.378 24.0037L16.9084 24.0362C17.24 23.9711 17.7041 23.8735 18.0356 23.7758C18.1914 23.7341 18.3592 23.7281 18.5237 23.7221C18.7443 23.7141 18.9588 23.7063 19.1297 23.6131H19.2292C19.3731 24.3086 19.4874 25.0114 19.6006 25.7069C19.8263 27.0943 20.0473 28.4528 20.489 29.6669C20.5183 29.7675 20.5217 29.8554 20.525 29.9391C20.5291 30.0448 20.5329 30.1437 20.5885 30.2528C20.6196 30.3446 20.6567 30.4605 20.6982 30.5907C20.8778 31.1529 21.1419 31.98 21.3842 32.2707V32.3684C21.3955 32.3573 21.4029 32.3499 21.4078 32.3413C21.4173 32.3245 21.4173 32.3025 21.4173 32.2382H21.4505C21.5394 32.535 21.6951 32.813 21.8459 33.0824C21.9763 33.3152 22.103 33.5416 22.1799 33.7679C22.2136 33.8672 22.2044 33.975 22.196 34.074C22.1879 34.1697 22.1804 34.2572 22.213 34.3212C22.2793 34.4189 22.3788 34.4921 22.4782 34.5653C22.5777 34.6385 22.6772 34.7118 22.7435 34.8094C22.8429 34.9396 23.2408 35.8184 23.2739 35.9811H23.0419V36.0137ZM20.7542 23.6131V23.5155H20.7874V23.6131H20.7542ZM31.9271 40.7982C31.3966 40.9934 30.402 41.1236 29.7058 40.9283C29.3079 40.8307 28.9432 40.6354 28.6117 40.4401V40.3425H28.6448C28.7316 40.2999 29.1872 40.4662 29.5662 40.6046C29.7666 40.6778 29.9456 40.7431 30.0373 40.7656C30.3162 40.8569 30.8395 40.7562 31.2531 40.6766C31.4295 40.6427 31.5859 40.6126 31.695 40.6029V40.5703C31.4075 40.5205 31.0942 40.5469 30.799 40.5718C30.5154 40.5957 30.2485 40.6182 30.0373 40.5703C28.9432 40.3099 27.0535 39.2359 26.5562 38.4547H26.4567C26.6758 38.861 27.1094 39.162 27.5212 39.4479C27.6702 39.5513 27.8165 39.6528 27.9486 39.7566C28.0144 39.8105 28.073 39.875 28.1326 39.9407C28.2534 40.0738 28.3788 40.2121 28.5785 40.2774V40.375C27.4513 39.9194 26.3572 39.0731 25.6942 38.1944C25.6179 38.0915 25.539 37.9725 25.4565 37.8481C25.252 37.5398 25.0257 37.1989 24.7659 36.9901V36.8925C24.9017 36.8925 25.0527 36.8818 25.2078 36.8708C25.6585 36.839 26.1437 36.8047 26.3904 37.0227C26.4401 37.0064 26.465 37.0064 26.4816 37.0064C26.4981 37.0064 26.5064 37.0064 26.523 36.9901C26.5168 36.981 26.5115 36.973 26.5068 36.966C26.4881 36.938 26.4799 36.9256 26.4682 36.9186C26.4589 36.9131 26.4475 36.911 26.427 36.9072C26.4107 36.9042 26.3886 36.9002 26.3572 36.8925V36.8599C26.4265 36.8372 26.4958 36.7988 26.5539 36.7665C26.5791 36.7525 26.6024 36.7396 26.6225 36.7297C26.7869 36.6813 26.9351 36.721 27.071 36.7573C27.209 36.7943 27.3344 36.8279 27.4513 36.7623H27.4845C27.4182 36.7297 27.3518 36.7297 27.2192 36.7297C27.2799 36.6504 27.3528 36.6436 27.438 36.6356C27.4927 36.6305 27.5523 36.625 27.6171 36.5995C27.6869 36.5721 27.7508 36.5217 27.8162 36.47C27.9062 36.3989 27.9992 36.3255 28.1144 36.3066C28.246 36.2743 28.345 36.2821 28.4477 36.2902C28.5521 36.2983 28.6603 36.3069 28.8106 36.2741C29.0427 36.209 29.3079 36.152 29.5732 36.095C29.8384 36.0381 30.1036 35.9811 30.3357 35.916C30.6013 35.8465 30.8763 35.8512 31.1456 35.8559C31.3807 35.8599 31.6113 35.8639 31.8276 35.8184H33.7174C34.1152 35.7208 34.6457 35.7208 35.1098 35.7208C35.0435 35.6882 35.0435 35.6882 34.9441 35.6882V35.5906L35.7397 35.4929C35.7643 35.505 35.7844 35.526 35.8066 35.5493C35.8443 35.5889 35.8884 35.6352 35.9718 35.6557C36.0063 35.6218 36.0408 35.5919 36.0739 35.5631C36.1363 35.509 36.1937 35.4591 36.237 35.3953C36.3365 35.3953 36.3697 35.3953 36.4028 35.4278H36.5686C36.3863 35.8509 36.2122 36.274 36.0382 36.6971C35.8641 37.1202 35.69 37.5434 35.5077 37.9665C34.6457 39.2684 33.4853 40.2449 31.9271 40.7982ZM29.6395 40.5378C29.7721 40.5378 29.9047 40.5703 30.0041 40.6354H30.2694V40.7331C30.0041 40.7005 29.7721 40.668 29.6395 40.5378ZM40.746 36.4368C40.5305 36.5995 40.3232 36.7867 40.116 36.9738C39.9088 37.161 39.7016 37.3481 39.4861 37.5109C38.8637 37.9437 38.221 38.3167 37.5739 38.6923C37.3939 38.7969 37.2132 38.9018 37.0327 39.008C36.6582 39.1629 36.2953 39.3292 35.9372 39.4934L35.9353 39.4943L35.9344 39.4947C35.6912 39.6062 35.4502 39.7166 35.2093 39.8217C35.0974 39.8706 34.9715 39.9056 34.8456 39.9407C34.6358 39.9992 34.426 40.0577 34.281 40.1798H34.1815C34.2882 40.0226 34.4331 39.903 34.5752 39.7856C34.698 39.6841 34.8187 39.5844 34.9109 39.4637C35.6071 38.5524 36.1376 37.6411 36.6017 36.5019C36.6111 36.4812 36.6206 36.4604 36.6303 36.4394L36.6577 36.3798C36.7778 36.1193 36.9092 35.8345 36.9664 35.5255H36.9996V35.4604H37.3311V35.4929C37.3026 35.5069 37.2863 35.5149 37.2691 35.5195C37.2464 35.5255 37.222 35.5255 37.1654 35.5255C37.2925 35.5879 37.4061 35.5173 37.5149 35.4497C37.5762 35.4116 37.636 35.3745 37.6958 35.3627C37.7839 35.3454 37.8627 35.3649 37.932 35.3821C37.9932 35.3972 38.0471 35.4105 38.0937 35.3953L38.7567 35.2651C38.8651 35.2347 38.9952 35.2469 39.1199 35.2586C39.2623 35.2719 39.3978 35.2846 39.4861 35.2325H41.3759C41.4272 35.2325 41.4835 35.2357 41.5399 35.2389C41.7384 35.2502 41.9395 35.2616 41.9395 35.1349H42.0721C41.9836 35.4823 41.2656 36.0357 40.8747 36.337C40.8261 36.3745 40.7826 36.408 40.746 36.4368ZM30.9988 21.1069C30.9391 21.1069 30.8862 21.1004 30.834 21.0931L30.9092 20.8083C30.9878 20.7929 31.0679 20.7791 31.1479 20.7652C31.2888 20.7408 31.4297 20.7164 31.5624 20.6838C31.5121 20.6345 31.3859 20.6412 31.2699 20.6474C31.2328 20.6494 31.1967 20.6513 31.1645 20.6513C31.2549 20.5921 31.3796 20.5665 31.5043 20.541C31.6539 20.5103 31.8035 20.4797 31.8939 20.3909H31.9934C31.9768 20.3584 31.9768 20.3502 31.9768 20.3421C31.9768 20.3339 31.9768 20.3258 31.9602 20.2933C31.7433 20.4589 31.3731 20.5428 30.9627 20.606C31.38 19.0255 31.9007 17.0465 32.4575 14.8904L32.4769 14.8114C32.6916 13.9373 32.7294 13.7838 32.9548 13.7838C33.1537 13.7838 33.2864 13.914 33.419 14.4347C33.8849 16.28 34.4987 18.4844 35.019 20.3223C34.8302 20.3552 34.6136 20.3488 34.3915 20.3422C34.1171 20.334 33.8343 20.3256 33.5848 20.3909C33.0787 20.5092 32.6078 20.6618 32.1463 20.8114C31.973 20.8676 31.8007 20.9234 31.6287 20.9768C31.4542 21.0338 31.2543 21.0659 31.0736 21.0949C31.0482 21.0989 31.0232 21.1029 30.9988 21.1069Z" fill="white"/>
<path d="M38.9888 3.04311C38.9971 3.05124 39.0012 3.05735 39.0043 3.06192C39.0137 3.07565 39.0137 3.07565 39.0883 3.07565V3.04311H38.9888Z" fill="white"/>
<path d="M10.145 12.2215C10.1285 12.1727 10.1285 12.1564 10.1285 12.1442C10.1285 12.132 10.1285 12.1238 10.1119 12.0913V12.2215H10.145Z" fill="white"/>
<path d="M44.2271 1.57846C44.1985 1.56445 44.1823 1.55647 44.1651 1.55193C44.1423 1.54592 44.118 1.54592 44.0613 1.54592C44.0328 1.55992 44.0165 1.56792 43.9993 1.57247C43.9766 1.57847 43.9522 1.57847 43.8956 1.57847C43.879 1.61102 43.879 1.61916 43.879 1.62729C43.879 1.63543 43.879 1.64357 43.8624 1.67611V1.83885C43.995 1.8063 44.1276 1.74121 44.2271 1.67611L44.2271 1.57846Z" fill="white"/>
<path d="M43.3319 2.00159C43.3098 2.03413 43.2951 2.06306 43.2816 2.08958C43.2546 2.14263 43.2325 2.18602 43.1662 2.22942V2.32706C43.188 2.31279 43.205 2.30009 43.2204 2.2886C43.2745 2.24824 43.3084 2.22296 43.4585 2.19788C43.4297 2.34579 43.3965 2.36173 43.2961 2.40994C43.2866 2.41452 43.2765 2.4194 43.2656 2.4247V2.45725C43.3575 2.4347 43.3858 2.41214 43.4275 2.37875C43.446 2.36396 43.4672 2.34705 43.4977 2.32706C43.4977 2.22942 43.4977 2.19687 43.4646 2.16432C43.4631 2.17281 43.4617 2.18093 43.4602 2.1887C43.4438 2.15889 43.4211 2.12908 43.3983 2.09927C43.3734 2.06673 43.3485 2.03413 43.3319 2.00159Z" fill="white"/>
<path d="M42.6689 2.68508V2.55489C42.5694 2.58744 42.5694 2.58744 42.5031 2.65254C42.47 2.68508 42.47 2.68508 42.47 2.7827L42.6357 2.78273C42.6523 2.75018 42.6523 2.74204 42.6523 2.73391C42.6523 2.72577 42.6523 2.71763 42.6689 2.68508Z" fill="white"/>
<path d="M39.2209 3.14075H39.1214C39.1333 3.15236 39.1366 3.15568 39.1406 3.15664C39.1414 3.15682 39.1422 3.15692 39.1431 3.15697L39.1463 3.15702C39.1546 3.15702 39.1712 3.15702 39.2209 3.1733H39.1877C39.196 3.18143 39.2002 3.18754 39.2033 3.19211C39.2054 3.19522 39.207 3.19762 39.2091 3.19948C39.2164 3.20584 39.2295 3.20584 39.2872 3.20584V3.1733H39.2209V3.14075Z" fill="white"/>
<path d="M39.5193 3.30349H39.4198C39.4281 3.31162 39.4322 3.31773 39.4354 3.3223L39.4371 3.32487C39.4385 3.32678 39.4397 3.32836 39.4412 3.32967C39.4485 3.33603 39.4615 3.33603 39.5193 3.33603C39.5311 3.34764 39.5345 3.35097 39.5385 3.35192C39.5388 3.35201 39.5392 3.35207 39.5395 3.35213C39.5399 3.35217 39.5402 3.35221 39.5406 3.35223C39.5416 3.35231 39.5428 3.35231 39.5441 3.35231C39.5524 3.35231 39.569 3.35231 39.6187 3.36858V3.33603H39.5193V3.30349Z" fill="white"/>
<path d="M15.085 5.06105C15.1015 5.06105 15.1264 5.05291 15.1513 5.04477C15.1761 5.03664 15.201 5.0285 15.2176 5.0285C15.2176 5.01223 15.2259 4.99595 15.2341 4.97968C15.2424 4.96341 15.2507 4.94713 15.2507 4.93086H15.1513C15.1513 4.96341 15.1181 5.0285 15.085 5.06105Z" fill="white"/>
<path d="M10.1782 11.896V11.9937H10.2114C10.2114 11.937 10.2114 11.9242 10.2049 11.917C10.203 11.9149 10.2005 11.9133 10.1974 11.9113C10.1927 11.9082 10.1865 11.9042 10.1782 11.896Z" fill="white"/>
<path d="M10.145 12.0262V12.1238H10.1782C10.1616 12.075 10.1616 12.0588 10.1616 12.0506C10.1616 12.0483 10.1616 12.0466 10.1612 12.045C10.1603 12.0411 10.1569 12.0378 10.145 12.0262Z" fill="white"/>
<path d="M44.8239 33.8655C44.8073 33.833 44.8073 33.8249 44.8073 33.8167C44.8073 33.8086 44.8073 33.8005 44.7907 33.7679V33.8655H44.8239Z" fill="white"/>
<path d="M47.012 35.2C47.0072 35.2143 47.003 35.2258 46.9996 35.2353C46.9913 35.2583 46.9872 35.2699 46.9872 35.2814C46.9872 35.2929 46.9913 35.3044 46.9996 35.3274C47.003 35.3369 47.0072 35.3484 47.012 35.3627C47.0617 35.3465 47.0866 35.3465 47.1032 35.3465C47.1198 35.3465 47.1281 35.3465 47.1446 35.3302H47.2441V35.2325H47.2109V35.2H47.012Z" fill="white"/>
<path d="M48.0066 35.2325C47.9072 35.2976 47.8077 35.3302 47.6419 35.3302C47.7198 35.376 47.783 35.3717 47.8418 35.3676C47.9084 35.363 47.9694 35.3588 48.0398 35.4278H48.0729V35.4929H48.1061C48.0895 35.4604 48.0895 35.4522 48.0895 35.4441C48.0895 35.436 48.0895 35.4278 48.0729 35.3953V35.2651H48.0066V35.2325Z" fill="white"/>
<path d="M48.8023 35.2325C48.7857 35.2651 48.7609 35.2814 48.736 35.2976C48.7111 35.3139 48.6863 35.3302 48.6697 35.3627H48.6366V35.3953C48.7029 35.4116 48.7775 35.4278 48.8521 35.4441C48.9266 35.4604 49.0012 35.4766 49.0676 35.4929V35.4604C49.0737 35.4543 49.0776 35.4505 49.08 35.4477C49.0823 35.4451 49.0833 35.4434 49.0837 35.4415C49.0839 35.441 49.084 35.4404 49.084 35.4398C49.0841 35.4387 49.0841 35.4375 49.0841 35.436C49.0841 35.4278 49.0841 35.4116 49.1007 35.3627C49.0637 35.3446 49.0344 35.3289 49.0085 35.3151C48.9418 35.2795 48.8979 35.256 48.8023 35.2325Z" fill="white"/>
<path d="M47.7746 35.5255V35.558C47.9072 35.558 47.9735 35.558 48.0398 35.5255H48.0729C48.0398 35.4929 48.0398 35.4929 47.9404 35.4929C47.9072 35.5255 47.874 35.5255 47.7746 35.5255Z" fill="white"/>
<path d="M20.9863 39.2684C20.9976 39.2795 21.0051 39.2869 21.014 39.2917C21.0311 39.301 21.0534 39.301 21.1189 39.301L21.1228 39.3047L21.1284 39.3102C21.1308 39.3124 21.1326 39.3139 21.1341 39.315C21.1356 39.316 21.1368 39.3166 21.1381 39.3169C21.1397 39.3172 21.1414 39.3172 21.1438 39.3172C21.1521 39.3172 21.1687 39.3172 21.2184 39.3335V39.301H21.1189C21.1024 39.2928 21.092 39.2867 21.0842 39.2822C21.0777 39.2783 21.073 39.2755 21.068 39.2736C21.0551 39.2684 21.04 39.2684 20.9863 39.2684Z" fill="white"/>
<path d="M37.3643 39.5288C37.3974 39.5451 37.4057 39.5451 37.414 39.5451C37.4223 39.5451 37.4306 39.5451 37.4637 39.5614V39.5288H37.3643Z" fill="white"/>
<path d="M24.4343 40.5378H24.9979V40.5052C24.8162 40.4288 24.5735 40.3723 24.3494 40.3201L24.349 40.32C24.287 40.3056 24.2265 40.2915 24.1691 40.2774C24.1691 40.3918 24.2347 40.4258 24.3197 40.4698C24.3556 40.4884 24.395 40.5088 24.4343 40.5378Z" fill="white"/>
<path fill-rule="evenodd" clip-rule="evenodd" d="M68.8603 24.0037C69.2913 22.3763 69.4571 22.2786 69.9876 22.2786H73.8002C74.4302 22.2786 74.5628 22.539 74.9275 23.9386C75.1125 24.6123 75.2707 25.1821 75.4044 25.664C75.8458 27.2542 76.0215 27.8874 76.0215 28.1372C76.0215 28.8207 75.6237 28.9509 75.1595 28.9509C74.6291 28.9509 74.2975 29.1136 74.2975 29.374C74.2975 29.6344 74.5628 29.732 74.8612 29.732C75.1515 29.732 75.4981 29.7044 75.8719 29.6745C76.3091 29.6397 76.7835 29.6018 77.2482 29.6018C77.6337 29.6018 77.9684 29.6351 78.2993 29.668C78.623 29.7002 78.9431 29.732 79.3038 29.732C79.8011 29.732 80 29.6669 80 29.4716C80 29.2101 79.6362 29.1167 79.2697 29.0226C79.18 28.9995 79.0901 28.9765 79.0054 28.9509C78.6407 28.8207 78.3423 28.2348 78.1765 27.649C76.2483 20.9212 75.1187 16.9478 73.9187 12.7266L73.9183 12.7251L73.8669 12.5441C73.5567 11.4533 73.2411 10.3431 72.9051 9.16202C72.7393 8.57616 72.673 8.38088 72.3415 8.38088C72.0099 8.38088 71.9105 8.70635 71.7115 9.3573C71.1508 11.4003 70.6042 13.526 70.0567 15.6548L70.0565 15.6555C68.9207 20.0718 67.7815 24.5015 66.5064 28.2348C66.3468 28.7223 65.9785 28.8373 65.6704 28.9334C65.4025 29.017 65.1803 29.0864 65.1803 29.374C65.1803 29.6018 65.3129 29.732 65.545 29.732C65.5977 29.732 65.6481 29.7229 65.7222 29.7094C65.9275 29.6721 66.3143 29.6018 67.4347 29.6018C67.8447 29.6018 68.2452 29.6395 68.6154 29.6743C68.9337 29.7042 69.2297 29.732 69.4902 29.732C69.8549 29.732 70.0539 29.6669 70.0539 29.374C70.0539 29.07 69.7192 29.0241 69.2326 28.9574C69.1462 28.9456 69.0547 28.933 68.9598 28.9183C68.1309 28.7881 67.9983 28.4301 67.9983 28.0395C67.9983 27.5839 68.1309 26.998 68.8603 24.0037ZM69.656 21.2371C69.656 21.0744 69.8881 20.1305 71.2805 14.7276L71.33 14.5571C71.5509 13.7956 71.592 13.6536 71.7779 13.6536C71.9768 13.6536 72.1094 13.7838 72.242 14.3045C72.7923 16.4178 73.2478 18.0114 73.5699 19.1383L73.57 19.1387C73.9076 20.3197 74.0986 20.9881 74.0986 21.2046C74.0986 21.465 74.0323 21.465 71.6784 21.465C69.7555 21.465 69.656 21.4324 69.656 21.2371Z" fill="white"/>
<path d="M60.7708 27.1608C60.7708 28.2348 61.1024 28.7231 61.5997 28.8207C61.8245 28.8632 62.0449 28.8923 62.2478 28.9192C62.8227 28.9953 63.2573 29.0528 63.2573 29.3415C63.2573 29.6995 62.9258 29.732 62.5611 29.732C62.4345 29.732 62.2809 29.7188 62.0717 29.7009C61.6235 29.6623 60.9196 29.6018 59.6767 29.6018C58.2141 29.6018 57.6179 29.6637 57.2475 29.7021C57.0805 29.7195 56.9594 29.732 56.8255 29.732C56.2951 29.732 56.1624 29.6018 56.1624 29.3415C56.1624 29.0811 56.2619 28.9183 57.5881 28.8207C58.4169 28.7556 58.5827 28.365 58.5827 27.0957V10.171C58.5827 9.74789 58.4832 9.71534 56.8918 9.71534C54.8729 9.71534 54.1322 11.7688 53.6314 13.1573C53.3756 13.8665 53.1824 14.4022 52.9134 14.4022C52.6481 14.4022 52.5487 14.3371 52.5487 13.6536C52.5487 12.9061 52.6579 12.1944 52.7818 11.3861C52.8252 11.1033 52.8704 10.8086 52.9134 10.4965C53.2118 8.25071 53.477 7.99033 53.6428 7.99033C53.9361 7.99033 54.0497 8.18802 54.1711 8.39925C54.3103 8.64154 54.4598 8.90166 54.9026 8.90166H64.7824C65.8365 8.90166 66.0354 8.56095 66.19 8.29618C66.2882 8.12792 66.3685 7.99033 66.639 7.99033C66.9374 7.99033 67.0369 8.18561 67.0369 8.90166C67.0369 10.0734 67.0037 10.7894 66.9043 11.7984C66.7053 13.914 66.5727 14.3696 66.2412 14.3696C65.928 14.3696 65.8261 13.8361 65.6911 13.1291C65.426 11.7406 65.0331 9.6828 62.6606 9.6828C60.9034 9.6828 60.804 9.71534 60.804 10.1385V27.1608H60.7708Z" fill="white"/>
</g>
</svg>
