<svg width="52" height="20" viewBox="0 0 52 20" fill="none" xmlns="http://www.w3.org/2000/svg">
<g opacity="0.32">
<path d="M16.0671 19.7878H20.5059L11.6283 0.794524H9.83167L0.954128 19.7878H5.3929L6.55544 17.2412H14.9046L16.0671 19.7878ZM8.35208 13.3152L10.6772 8.22206L13.0022 13.3152H8.35208Z" fill="white"/>
<path d="M28.5379 13.103C30.1232 11.9358 31.18 9.91978 31.18 7.58541C31.18 3.97775 28.5379 1.00673 25.2617 0.900623H15.75L17.8637 5.25104C17.8637 5.25104 24.5219 5.25104 24.6276 5.25104C25.7901 5.46325 26.6356 6.41822 26.6356 7.58541C26.6356 8.11594 26.4242 8.64648 26.1072 9.07091C25.7901 9.49534 25.156 9.81367 24.6276 9.91978H20.0831L22.1968 14.1641H23.5707L26.8469 19.7878H32.4483L28.5379 13.103Z" fill="white"/>
<path d="M47.1385 12.4664C46.3987 14.2702 44.7077 15.5435 42.8054 15.5435C40.1633 15.5435 38.0496 13.2091 38.0496 10.2381C38.0496 7.3732 40.1633 4.93272 42.8054 4.93272C44.602 4.93272 46.1873 5.99379 46.9271 7.69152H51.8943C50.8375 3.55332 47.0328 0.476196 42.594 0.476196C37.3098 0.476196 32.9767 4.82661 32.9767 10.2381C32.9767 15.6496 37.3098 20 42.594 20C47.1385 20 50.9431 16.7107 52 12.3603H47.1385V12.4664Z" fill="white"/>
</g>
</svg>
