<?xml version="1.0" encoding="utf-8"?><svg width="296" height="24" viewBox="0 0 296 24" xmlns="http://www.w3.org/2000/svg" xmlns:xlink="http://www.w3.org/1999/xlink"><svg width="102" height="23" fill="none" viewBox="0 0 102 23" id="b1a1" xmlns="http://www.w3.org/2000/svg"><path d="M101.061 12.56a1.502 1.502 0 000-2.12L91.515.892a1.5 1.5 0 10-2.122 2.122L97.88 11.5l-8.486 8.485a1.5 1.5 0 102.122 2.122l9.546-9.546zM0 13h100v-3H0v3z" fill="url(#apaint0_linear)"/><defs><linearGradient id="apaint0_linear" x1="100" y1="11.5" x2="0" y2="11.5" gradientUnits="userSpaceOnUse"><stop stop-color="#3ABAF1"/><stop offset=".992" stop-color="#428DD7" stop-opacity="0"/></linearGradient></defs></svg><svg width="80" height="16" fill="none" viewBox="0 0 80 16" id="b1a2" x="102" xmlns="http://www.w3.org/2000/svg"><path d="M79.707 8.707a1 1 0 000-1.414L73.343.929a1 1 0 10-1.414 1.414L77.586 8l-5.657 5.657a1 1 0 001.414 1.414l6.364-6.364zM0 9h79V7H0v2z" fill="url(#bpaint0_linear)"/><defs><linearGradient id="bpaint0_linear" x1="79" y1="8" x2="0" y2="8" gradientUnits="userSpaceOnUse"><stop stop-color="#3479BF"/><stop offset=".992" stop-color="#428DD7" stop-opacity="0"/></linearGradient></defs></svg><svg width="64" height="24" fill="none" viewBox="0 0 64 24" id="b2a1" x="182" xmlns="http://www.w3.org/2000/svg"><path d="M63.06 13.06a1.5 1.5 0 000-2.12l-9.545-9.547a1.5 1.5 0 10-2.122 2.122L59.88 12l-8.486 8.485a1.5 1.5 0 102.122 2.122l9.546-9.546zM0 13.5h62v-3H0v3z" fill="url(#cpaint0_linear)"/><defs><linearGradient id="cpaint0_linear" x1="62" y1="12" x2="0" y2="12" gradientUnits="userSpaceOnUse"><stop stop-color="#3479BF"/><stop offset=".992" stop-color="#428DD7" stop-opacity="0"/></linearGradient></defs></svg><svg width="25" height="16" fill="none" viewBox="0 0 25 16" id="b2a2" x="246" xmlns="http://www.w3.org/2000/svg"><path d="M24.707 8.707a1 1 0 000-1.414L18.343.929a1 1 0 10-1.414 1.414L22.586 8l-5.657 5.657a1 1 0 001.414 1.414l6.364-6.364zM0 9h24V7H0v2z" fill="url(#dpaint0_linear)"/><defs><linearGradient id="dpaint0_linear" x1="24" y1="8" x2="0" y2="8" gradientUnits="userSpaceOnUse"><stop stop-color="#3479BF"/><stop offset=".992" stop-color="#428DD7" stop-opacity="0"/></linearGradient></defs></svg><svg width="25" height="8" fill="none" viewBox="0 0 25 8" id="b2a3" x="271" xmlns="http://www.w3.org/2000/svg"><path d="M24.354 4.354a.5.5 0 000-.708L21.172.464a.5.5 0 10-.707.708L23.293 4l-2.828 2.828a.5.5 0 10.707.708l3.182-3.182zM0 4.5h24v-1H0v1z" fill="url(#epaint0_linear)"/><defs><linearGradient id="epaint0_linear" x1="24" y1="4" x2="0" y2="4" gradientUnits="userSpaceOnUse"><stop stop-color="#3479BF"/><stop offset=".992" stop-color="#428DD7" stop-opacity="0"/></linearGradient></defs></svg></svg>